<svg width="22" height="24" viewBox="0 0 22 24" fill="none" xmlns="http://www.w3.org/2000/svg">
<path d="M11.2261 10.2816H21.824C21.9413 10.9788 22 11.646 22 12.2808C22 14.5416 21.5563 16.56 20.6702 18.336C19.7829 20.112 18.5191 21.5004 16.8764 22.5C15.2338 23.4996 13.3516 24 11.2261 24C9.71612 24.0042 8.22377 23.6814 6.85544 23.0544C5.47188 22.4244 4.27777 21.5724 3.27433 20.4996C2.27088 19.4268 1.47399 18.1512 0.884883 16.6716C0.293301 15.1829 -0.00691211 13.598 -5.56131e-06 12C-5.56131e-06 10.3644 0.29455 8.80804 0.884883 7.32844C1.47522 5.84884 2.27088 4.57324 3.27433 3.50044C4.28354 2.42315 5.50139 1.55421 6.85666 0.944444C8.22472 0.318097 9.71662 -0.004359 11.2261 4.45006e-05C14.1497 4.45006e-05 16.6601 1.04644 18.755 3.14044L15.6994 6.28084C14.5017 5.04124 13.0106 4.42084 11.2261 4.42084C9.96966 4.42084 8.80733 4.76044 7.74033 5.43724C6.67333 6.11404 5.82755 7.03324 5.20422 8.19604C4.57751 9.36888 4.25589 10.6757 4.26799 12C4.26799 13.3752 4.58088 14.6436 5.20422 15.804C5.82755 16.9644 6.67333 17.886 7.74033 18.5628C8.77534 19.2303 9.98779 19.5835 11.2261 19.578C12.0743 19.578 12.8541 19.4532 13.5654 19.2036C14.2768 18.954 14.861 18.6396 15.3193 18.2652C15.7777 17.8908 16.1773 17.4636 16.5171 16.9848C16.8593 16.5048 17.1099 16.0524 17.2712 15.6252C17.4325 15.198 17.5413 14.7912 17.6 14.406H11.2261V10.2816Z" fill="black"/>
</svg>
