<svg width="24" height="24" viewBox="0 0 24 24" fill="none" xmlns="http://www.w3.org/2000/svg">
<g clip-path="url(#clip0_1_1180)">
<path d="M23.9817 12.0251C23.9817 13.7736 23.9931 15.5222 23.9817 17.2708C23.9691 21.0673 21.0457 23.9908 17.2491 23.9908C13.752 24.0022 10.2549 24.0022 6.75771 23.9908C2.92229 23.9771 0.0114286 21.0673 0 17.2205V6.80449C0.0114286 2.93249 2.92229 0.0216311 6.79429 0.00905971C10.2549 -0.00236886 13.7017 -0.00236886 17.1611 0.00905971C21.0834 0.0216311 23.9691 2.90735 23.9817 6.84106C23.9931 8.56563 23.9817 10.2891 23.9817 12.0251ZM12.0034 5.35534C11.128 5.35095 10.2603 5.52015 9.45066 5.85315C8.641 6.18614 7.90538 6.67634 7.28633 7.29539C6.66728 7.91444 6.17708 8.65006 5.84409 9.45972C5.51109 10.2694 5.34189 11.137 5.34629 12.0125C5.34342 12.8832 5.5126 13.7458 5.84409 14.5509C6.17557 15.356 6.66285 16.0877 7.27793 16.704C7.893 17.3202 8.62376 17.8089 9.42823 18.1419C10.2327 18.4749 11.095 18.6457 11.9657 18.6445C12.8414 18.6533 13.7102 18.4881 14.5216 18.1585C15.333 17.829 16.0709 17.3416 16.6925 16.7247C17.3141 16.1077 17.8071 15.3735 18.1427 14.5647C18.4784 13.7558 18.6502 12.8883 18.648 12.0125C18.6528 11.138 18.4844 10.2712 18.1523 9.46211C17.8203 8.65306 17.3312 7.91782 16.7134 7.29885C16.0956 6.67987 15.3613 6.18943 14.5529 5.85585C13.7445 5.52227 12.878 5.35216 12.0034 5.35534ZM21.3211 4.00677C21.3211 3.3062 20.7211 2.69477 20.0217 2.66963C19.2971 2.64449 18.6606 3.2822 18.648 4.00677C18.648 4.70506 19.2469 5.31763 19.9474 5.34277C20.6834 5.36792 21.3211 4.74277 21.3211 4.00563V4.00677Z" fill="black"/>
<path d="M15.9875 12.0263C15.9868 12.5519 15.8818 13.0723 15.6788 13.5571C15.4757 14.042 15.1785 14.4818 14.8045 14.8511C14.4304 15.2204 13.9868 15.5119 13.4993 15.7087C13.0119 15.9055 12.4903 16.0037 11.9646 15.9977C10.9128 15.9896 9.9068 15.5664 9.1654 14.8203C8.42401 14.0742 8.00724 13.0655 8.00576 12.0137C8.00381 11.4876 8.10579 10.9662 8.30584 10.4796C8.5059 9.99302 8.80009 9.55071 9.17154 9.17809C9.54299 8.80548 9.98437 8.50989 10.4704 8.30831C10.9563 8.10673 11.4773 8.00311 12.0035 8.00342C12.5298 8.00385 13.0509 8.10848 13.5366 8.31129C14.0223 8.51409 14.463 8.81104 14.8334 9.18502C15.2038 9.55901 15.4964 10.0026 15.6945 10.4903C15.8926 10.9779 15.9922 11.5 15.9875 12.0263Z" fill="black"/>
</g>
<defs>
<clipPath id="clip0_1_1180">
<rect width="24" height="24" fill="white"/>
</clipPath>
</defs>
</svg>
