<svg width="89" height="87" viewBox="0 0 89 87" fill="none" xmlns="http://www.w3.org/2000/svg">
<path d="M41.3494 86.9998C32.4754 86.862 22.0668 82.7295 13.5739 74.2543C4.88842 65.5916 0.586278 55.0169 0.774731 42.7665C0.954855 31.0567 5.2747 20.9595 13.602 12.708C22.3156 4.07219 32.9492 -0.197023 45.2694 0.0101202C57.2159 0.206906 67.4673 4.62837 75.7946 13.1223C84.2552 21.7487 88.3908 32.2167 88.2252 44.2848C87.9066 67.7355 68.5366 87.0547 41.3494 86.9998ZM21.8169 43.5101H21.8773C21.9554 43.1891 22.0335 42.8638 22.1168 42.5438C22.4905 41.1 22.8216 39.6438 23.4578 38.2922C24.2314 36.6475 25.0602 35.0297 25.9077 33.4223C26.6032 32.1121 27.3487 30.8288 28.2795 29.6647C29.4956 28.1443 30.4712 26.4851 31.2593 24.7078C31.5634 24.0252 31.8486 23.3334 32.1475 22.6467C32.4983 21.8399 32.8846 21.062 33.4375 20.3557C33.93 19.7239 34.3266 19.0186 34.8056 18.3775C35.0399 18.0606 35.0492 17.7716 34.9201 17.4371C34.8649 17.291 34.791 17.1439 34.7223 16.9834C34.8285 16.8829 34.9253 16.7918 35.0263 16.6996C35.5375 16.2139 36.0352 15.7198 36.5652 15.2517C37.471 14.4459 38.5538 13.9094 39.646 13.3967C40.1437 13.1627 40.6684 13.0943 41.2348 13.1492C41.9345 13.2176 42.6436 13.232 43.3484 13.1999C43.6983 13.1854 44.0023 13.231 44.2876 13.4102C44.7558 13.7 45.2168 14.0012 45.6703 14.3133C46.4199 14.8353 46.9093 15.5593 47.18 16.4158C47.3601 16.9886 47.4934 17.58 47.6225 18.1662C47.6589 18.3443 47.7328 18.4458 47.8942 18.5235C48.6636 18.8995 49.3727 19.3573 50.0401 19.8927C50.2108 20.0305 50.367 20.1631 50.6158 20.1133C50.6991 20.0947 50.8095 20.1548 50.897 20.2003C51.0854 20.3008 51.2697 20.4106 51.4488 20.5256C52.0808 20.9419 52.1308 21.4598 51.5925 21.9963C51.5279 22.0605 51.4446 22.1061 51.3842 22.1744C51.2843 22.2883 51.1593 22.4033 51.1 22.541C50.8053 23.1915 50.4274 23.7777 49.8006 24.163C49.405 24.4053 48.9989 24.6394 48.6033 24.8735C48.5533 24.9046 48.4971 24.9367 48.4471 24.9739C48.065 25.2308 47.6506 25.3862 47.1758 25.3727C46.9082 25.3675 46.6417 25.4141 46.3741 25.4452C46.2138 25.4638 46.1211 25.4183 46.1398 25.2256C46.2367 25.1614 46.3325 25.0972 46.4345 25.033L43.6441 24.511C43.5005 25.0599 43.3807 25.6378 43.2016 26.1919C43.1568 26.3205 43.1393 26.457 43.1502 26.5927C43.1611 26.7283 43.2003 26.8603 43.2651 26.9801C43.5515 27.5622 43.8367 28.1484 44.095 28.7439C44.9925 30.833 45.2548 33.0649 45.5266 35.2959C45.5818 35.763 45.5182 36.2622 45.8181 36.6879C45.8535 36.7397 45.8306 36.8349 45.8358 36.9126L45.7754 36.9582C45.6286 36.8671 45.4808 36.7759 45.3017 36.6703C45.3246 36.7666 45.3329 36.8308 45.3569 36.8898C45.6099 37.5548 45.6515 38.2321 45.5859 38.9375C45.5318 39.5247 45.5818 40.1202 45.5818 40.7106C45.5818 40.7655 45.5589 40.8204 45.5266 40.9488C45.2413 40.7613 45.0018 40.5967 44.7436 40.4268C44.449 41.1508 44.4125 41.8882 44.3292 42.6484C43.8326 42.5573 43.6618 42.1948 43.4911 41.8789C43.2016 42.6898 42.9059 43.4915 42.6207 44.2983C42.0636 45.8736 41.3816 47.3858 40.429 48.7695C40.3186 48.93 40.2582 49.1361 40.1978 49.3288C40.125 49.567 40.0552 49.8135 40.0146 50.0569C39.9355 50.5105 39.8803 50.9683 39.8168 51.4313C39.9219 51.4499 39.9636 51.4623 40.0094 51.4623C41.1755 51.4623 42.3395 51.4675 43.5098 51.4592C43.6067 51.4592 43.717 51.3805 43.8003 51.3163C44.1501 51.0418 44.4635 50.7156 44.8363 50.4919C45.5318 50.0703 46.296 49.8912 47.106 50.1532C47.839 50.3914 48.4794 50.7622 48.8708 51.4447H50.4222C50.519 50.7259 50.6533 50.0289 50.7085 49.3236C50.7866 48.321 50.8053 47.3122 50.8512 46.3097C50.9063 45.0492 50.9844 43.7991 51.3114 42.5707C51.3572 42.3874 51.3166 42.1813 51.3166 41.9659C51.201 42.0208 51.1042 42.0663 51.0125 42.1078C50.9896 42.0943 50.9615 42.0808 50.9386 42.0663C51.0302 41.6728 51.0677 41.2512 51.2333 40.8939C51.8337 39.6078 52.4603 38.334 53.1126 37.0732C53.3198 36.6692 53.2594 36.633 53.0293 36.3678C53.0428 36.0571 52.8408 35.8458 52.643 35.6304C52.583 35.5556 52.5007 35.5016 52.408 35.4761C52.3152 35.4506 52.2167 35.4549 52.1266 35.4885C51.708 35.6118 51.2884 35.6801 50.8376 35.6387C49.8277 35.5434 49.4424 35.1902 49.3269 34.1918C49.3165 34.1089 49.2394 34.0178 49.1655 33.9671C48.8573 33.7609 48.5762 33.5269 48.4054 33.1882C48.3715 33.1284 48.3262 33.0756 48.2722 33.0328C47.991 32.7708 47.9723 32.5461 48.2305 32.2623C48.2981 32.1884 48.3739 32.1224 48.4565 32.0655C48.7875 31.8324 48.9302 31.5062 48.9718 31.1126C49.0228 30.6321 49.1197 30.1504 49.1697 29.6699C49.1926 29.4627 49.304 29.3488 49.4508 29.2245C50.1821 28.6175 51.0023 28.125 51.883 27.7642C52.1776 27.6399 52.2973 27.4431 52.2838 27.1458C52.2814 27.0014 52.2674 26.8573 52.2422 26.715C52.163 26.2386 52.0339 25.7797 51.7674 25.3634C51.6289 25.1479 51.7257 24.9926 51.984 24.9967C52.1224 24.9967 52.2599 25.0195 52.39 25.0609C52.9189 25.2163 53.3521 25.5281 53.7529 25.8895C54.0153 26.1277 54.2735 26.3763 54.5765 26.6601C54.6462 26.4074 54.7285 26.1971 54.7566 25.9765C54.8076 25.5602 54.8399 25.1438 54.8576 24.7264C54.8763 24.2821 55.0054 24.1951 55.4146 24.3784C55.7374 24.5203 55.9904 24.7451 56.1653 25.033C56.7005 25.9175 57.1971 26.8206 57.3679 27.8605C57.3866 27.9609 57.4512 28.0801 57.5345 28.1443C58.1508 28.6166 58.6246 29.2111 59.0348 29.8625C59.6658 30.8651 60.1124 31.9516 60.4716 33.0732C60.5082 33.1856 60.5853 33.2804 60.6882 33.3394C61.5774 33.7931 62.2999 34.4476 62.9226 35.2141C64.2532 36.8484 65.0778 38.7355 65.6483 40.7427C65.9388 41.7732 66.1596 42.8141 66.1596 43.8944C66.1648 44.899 66.1971 45.9057 66.1971 46.9093C66.1971 47.2346 66.1367 47.5598 66.1231 47.8902C66.1179 47.9772 66.1783 48.1232 66.2377 48.1418C66.3074 48.1646 66.4272 48.0911 66.5052 48.0362C66.5604 47.9948 66.5927 47.9119 66.6291 47.8487C68.4949 44.6556 70.3597 41.4625 72.2203 38.2684C73.6571 35.8086 75.0856 33.3436 76.5224 30.8796C76.8441 30.3244 77.1763 29.7755 77.5032 29.2256C77.6229 29.0236 77.7843 28.9739 78.0279 29.0101C78.3642 29.065 78.7141 29.0826 79.0556 29.065C79.4606 29.0422 79.824 28.8682 80.0551 28.5244C80.5288 27.8056 80.6767 26.8248 79.9947 26.0366C79.3273 25.2712 78.5027 24.7212 77.5219 24.4416C76.8681 24.2552 76.1996 24.2448 75.5593 24.511C75.021 24.7316 74.5973 25.0931 74.5004 25.6886C74.3161 26.8206 74.9013 27.8056 75.7259 28.2219C75.8175 28.2675 75.9279 28.4011 75.9279 28.4964C75.9372 28.9273 75.7665 29.2256 75.2699 29.1976C75.0949 29.1883 74.9242 29.1386 74.7212 29.1013C74.6566 29.1883 74.5744 29.2753 74.514 29.3768C73.8643 30.4394 73.225 31.5072 72.5753 32.5699C70.7376 35.5942 68.9041 38.6174 67.0675 41.6407C67.03 41.7007 66.9842 41.7546 66.9196 41.8374C66.7635 41.215 66.6114 40.6371 66.4594 40.0281C68.9281 36.1244 71.4144 32.2032 73.8966 28.2768C73.833 28.1577 73.7727 28.0707 73.7362 27.9744C73.6022 27.643 73.4717 27.3101 73.3447 26.976C73.275 26.7927 73.2292 26.5959 73.1282 26.4302C71.628 23.9487 69.8086 21.6726 67.7161 19.6597C66.3488 18.3435 64.8732 17.1434 63.3047 16.072C60.3544 14.0638 57.0957 12.5457 53.6561 11.577C51.2717 10.9004 48.818 10.495 46.3418 10.3683C45.3232 10.3194 44.3028 10.3163 43.2839 10.359C42.2344 10.4004 41.189 10.4729 40.1479 10.6024C37.6493 10.9167 35.1962 11.5208 32.8388 12.4024C29.8285 13.5164 26.9984 15.0629 24.4386 16.9927C22.4529 18.4824 20.6408 20.1881 19.0359 22.0781C16.0696 25.5603 13.8601 29.6156 12.5463 33.9888C11.6726 36.9096 11.2066 39.9359 11.1615 42.9829C11.1469 43.8716 11.1979 44.7644 11.2386 45.6592C11.3166 47.2988 11.5655 48.9207 11.9018 50.5281C11.9663 50.8399 12.0496 51.1475 12.1236 51.4541H23.0559C23.0111 51.3577 22.9778 51.2987 22.9507 51.2438C22.628 50.6296 22.2875 50.0206 21.9887 49.3919C20.556 46.378 19.8876 43.1891 19.8512 39.8634C19.8376 38.6216 19.9345 37.3797 20.1042 36.1483C20.4727 33.4399 21.237 30.8558 22.5135 28.4281C23.6636 26.2489 25.1719 24.2763 26.9759 22.5918C28.7626 20.9057 30.8033 19.5634 32.8794 18.2801C32.9814 18.2159 33.1105 18.1973 33.2251 18.161L33.2948 18.2159C33.2761 18.3537 33.2719 18.4914 33.2344 18.6198C32.8898 19.7374 32.1204 20.5162 31.176 21.1439C29.8487 22.0389 28.6267 23.0794 27.533 24.2458C25.8047 26.0609 24.3945 28.1513 23.361 30.4301C22.1449 33.1105 21.5327 35.9235 21.4213 38.8504C21.3813 39.9716 21.443 41.094 21.6055 42.2041C21.6472 42.6349 21.7347 43.0699 21.8179 43.5091L21.8169 43.5101ZM57.1482 64.1519H46.978C46.853 64.1519 46.7333 64.1695 46.6094 64.1747C45.9826 64.1923 45.3517 64.2244 44.7249 64.2244C44.2043 64.2244 43.6847 64.1561 43.1642 64.1561C35.0076 64.1519 26.8562 64.1519 18.6996 64.1519H18.3821C20.556 66.8686 23.0382 69.1544 25.8796 71.0415C32.0423 75.1326 38.8401 76.9968 46.2273 76.6312C52.845 76.3008 58.837 74.1621 64.1928 70.2771C66.5905 68.5384 68.7397 66.4838 70.5814 64.1695H58.7495C58.712 64.2161 58.6766 64.2482 58.6527 64.2886C58.2706 64.9484 57.851 65.5947 57.5147 66.2772C56.5943 68.1332 55.3876 69.7676 53.8539 71.1658C52.6787 72.2445 51.3223 73.1097 49.8464 73.7219C48.4835 74.2812 47.0602 74.6023 45.587 74.6976C44.0804 74.7939 42.5988 74.7027 41.1422 74.3133C38.9037 73.7126 36.9983 72.5443 35.3345 70.9597C34.4505 70.1166 33.6634 69.1907 33.0231 68.1508C32.9544 68.0369 32.9221 67.9033 32.8711 67.78C32.8981 67.7614 32.9263 67.7438 32.9585 67.7251C33.0273 67.7842 33.1053 67.8391 33.1657 67.9033C33.4187 68.1974 33.654 68.5133 33.9206 68.7971C35.4917 70.4646 37.4262 71.5459 39.5856 72.2512C40.8059 72.6499 42.0595 72.9016 43.3339 73.058C44.5312 73.2041 45.739 73.2362 46.9363 73.058C49.4695 72.6779 51.5321 71.4268 53.2771 69.6122C54.4713 68.3714 55.4469 66.9691 56.3454 65.5035C56.6078 65.0727 56.8556 64.6366 57.1472 64.1519H57.1482ZM76.4037 33.7589C76.3808 33.7589 76.3579 33.7547 76.3339 33.7547L66.0961 51.4427H76.9003C78.3195 45.4914 78.1622 39.6045 76.4037 33.7589ZM50.0307 80.8518C50.1234 80.7741 50.1827 80.7275 50.2431 80.6819C50.8324 80.2148 50.897 79.2754 50.3576 78.7493C49.9349 78.336 49.3998 78.2677 48.8375 78.3226C48.3502 78.3681 47.8671 78.4323 47.3788 78.4924C47.0748 78.5287 46.7749 78.5701 46.4251 78.6167C46.6458 80.4396 46.8624 82.2396 47.0748 84.0356C47.1529 84.0449 47.18 84.0542 47.2081 84.0542C47.991 83.962 48.7782 83.8802 49.557 83.7746C50.0547 83.7062 50.5336 83.5685 50.9157 83.2111C51.0789 83.0627 51.2019 82.8758 51.2734 82.6677C51.3449 82.4596 51.3627 82.237 51.325 82.0203C51.2874 81.8036 51.1956 81.5997 51.058 81.4276C50.9204 81.2554 50.7415 81.1204 50.5378 81.0351C50.3899 80.9626 50.2296 80.9212 50.0307 80.8518ZM29.279 75.1067C28.5783 76.7742 27.8838 78.4417 27.1738 80.1371C27.3768 80.2148 27.5475 80.279 27.7308 80.3526C28.3066 78.9875 28.8646 77.6587 29.4217 76.3257L29.4862 76.3392C29.7205 77.466 29.9547 78.5929 30.1994 79.7612C31.2177 79.1014 32.1797 78.4738 33.1428 77.8461L33.1886 77.8876C32.6316 79.2257 32.0694 80.5628 31.503 81.9237C31.7008 82.0066 31.8674 82.075 32.06 82.1526C32.7742 80.4489 33.4739 78.7762 34.184 77.0859C33.9716 76.9989 33.7883 76.9306 33.603 76.857C32.5993 77.5261 31.604 78.1807 30.5815 78.8591C30.5503 78.7213 30.5263 78.6343 30.5086 78.5473L29.9422 75.6753C29.8589 75.262 29.7673 75.175 29.279 75.1067ZM40.024 78.4002C39.9219 80.2334 39.8261 82.0294 39.7241 83.875C39.9126 83.8937 40.0885 83.9071 40.3134 83.9258C40.3967 82.4457 40.4748 81.0071 40.5529 79.5685C40.5758 79.5644 40.6039 79.5644 40.6258 79.5602C41.2213 80.5359 41.8148 81.5074 42.4416 82.5379C43.1735 81.5851 43.8732 80.6684 44.5739 79.757L44.6426 79.7839C44.5645 81.2277 44.4906 82.6746 44.4125 84.1371H45.0018C45.0987 82.3132 45.1996 80.5079 45.2965 78.7027C44.9196 78.625 44.652 78.6612 44.4167 78.9958C43.8732 79.7746 43.2839 80.5172 42.7133 81.2733C42.6488 81.3562 42.5842 81.439 42.4915 81.5529C41.8737 80.5194 41.2566 79.4854 40.6403 78.451C40.4331 78.4323 40.2624 78.4199 40.0229 78.4002H40.024ZM60.3477 78.277C60.532 78.103 60.6934 77.9704 60.8267 77.8192C61.5451 77.0082 61.1119 75.5965 60.0572 75.3262C59.5419 75.1937 59.04 75.2807 58.5559 75.5002C57.8978 75.7985 57.244 76.0916 56.5891 76.3889C56.5245 76.422 56.46 76.4624 56.3819 76.509L58.6662 81.4929C58.8693 81.4017 59.0348 81.323 59.2191 81.2412C58.9203 80.5815 58.6339 79.9538 58.3393 79.2982C58.8463 79.0703 59.3159 78.8539 59.772 78.6478C59.85 78.6799 59.9011 78.7027 59.9469 78.7254C60.5737 79.0652 61.1994 79.4038 61.821 79.7477C62.1573 79.931 62.4519 79.8803 62.756 79.5872C61.9636 79.1563 61.1765 78.7254 60.3477 78.277ZM34.8649 7.31191C34.9992 7.22491 35.0867 7.16484 35.1742 7.10476C35.5511 6.82098 35.8551 6.48748 35.8874 5.98309C35.9613 4.80133 35.0815 3.99969 33.9029 4.24723C33.097 4.41191 32.3099 4.69155 31.5175 4.92044C31.4113 4.95151 31.3051 4.99294 31.1719 5.03437C31.706 6.78473 32.2401 8.51644 32.7742 10.2709C32.9773 10.2119 33.147 10.157 33.3459 10.0969C33.1335 9.40094 32.9304 8.73187 32.7284 8.04934C33.2626 7.8888 33.7509 7.74276 34.2527 7.58637C34.9805 8.11769 35.7031 8.64073 36.4215 9.16273C36.6526 9.09334 36.864 9.03016 37.1264 8.9473C36.3528 8.39837 35.6292 7.87016 34.8649 7.31087V7.31191ZM50.1098 3.09655L49.0322 8.47501C49.2529 8.52162 49.4237 8.55269 49.6122 8.58894C49.76 7.87948 49.8974 7.20109 50.0359 6.53305C50.1005 6.52787 50.1275 6.51441 50.1556 6.51959C50.5971 6.60244 51.0448 6.68426 51.4863 6.78058C51.5602 6.79819 51.6383 6.88105 51.6799 6.95459C51.8132 7.20212 51.9288 7.45794 52.0527 7.7148L52.7763 9.21659C53.0158 9.26319 53.2365 9.3098 53.4989 9.35951C53.0897 8.4978 52.6972 7.68684 52.2973 6.83962C52.4494 6.82616 52.5368 6.81269 52.6243 6.80337C53.3292 6.75262 53.8726 6.32694 54.0476 5.69516C54.2495 4.95669 54.0288 4.32491 53.3927 3.92616C53.1243 3.76505 52.8324 3.64626 52.5274 3.57401C51.91 3.42176 51.2843 3.31716 50.6575 3.19287C50.4909 3.16594 50.3306 3.13798 50.1098 3.09655ZM45.3839 8.32898C46.6958 8.41183 48.1889 7.36162 48.2076 5.47041C48.2211 3.87541 46.9821 2.65741 45.3798 2.65741C43.7722 2.65741 42.5655 3.89405 42.5613 5.52944C42.5613 7.10994 43.8138 8.39837 45.3839 8.32898ZM28.1598 6.53719C26.8427 6.4823 25.3132 7.54494 25.309 9.30876C25.3038 10.9131 26.5657 12.2139 28.1223 12.2191C29.7028 12.2233 30.9595 11.0084 30.9647 9.4693C30.9688 7.82976 29.7392 6.54237 28.1598 6.53823V6.53719ZM38.2779 80.568C37.2784 80.3381 36.3205 80.1185 35.3262 79.8948C35.4688 79.2619 35.6073 78.6664 35.7499 78.0346C36.8598 78.2811 37.9364 78.5245 39.0473 78.7721C39.089 78.5753 39.1161 78.423 39.1525 78.249C37.85 77.9559 36.5829 77.668 35.2793 77.3749C34.8701 79.1749 34.4641 80.9377 34.0549 82.7295C35.3772 83.0278 36.661 83.3209 37.9739 83.614C38.0155 83.4266 38.052 83.2702 38.0884 83.092C36.965 82.8352 35.8738 82.5835 34.7587 82.3318C34.9107 81.6721 35.0544 81.0672 35.2012 80.4261C36.2008 80.6498 37.1586 80.8652 38.1446 81.0848C38.1946 80.9067 38.2321 80.7554 38.2779 80.5669V80.568ZM68.1264 14.5039C68.2419 14.3579 68.3335 14.2346 68.4491 14.0876C67.6474 13.4558 66.8738 12.8416 66.0856 12.2181C66.5 11.7002 66.8874 11.2103 67.2882 10.7111C68.1857 11.4123 69.0519 12.0948 69.9411 12.796C70.0609 12.6489 70.1577 12.5257 70.2722 12.3786L67.1362 9.91362L63.7003 14.2336C64.7686 15.0725 65.8097 15.8928 66.8686 16.7265L67.1872 16.2998C66.2793 15.5852 65.4047 14.8944 64.5114 14.188C64.9299 13.6619 65.3266 13.1668 65.741 12.6448C66.5511 13.2724 67.3298 13.8814 68.1264 14.5049V14.5039ZM51.6893 77.8689C52.187 79.6421 52.6784 81.3831 53.1813 83.1697C54.489 82.8072 55.7655 82.4509 57.0597 82.0884C56.9993 81.9009 56.9577 81.7591 56.9035 81.5809C55.7926 81.8875 54.715 82.1847 53.6092 82.4872C53.426 81.8367 53.2594 81.2319 53.0803 80.5949C54.0653 80.3153 55.0148 80.0501 55.9904 79.7746C55.9404 79.5965 55.8936 79.4401 55.8436 79.2671L52.9325 80.0677C52.7534 79.4318 52.5826 78.8352 52.4119 78.2221L55.6728 77.3107C55.6177 77.1222 55.576 76.9761 55.526 76.797C54.2318 77.1594 52.9699 77.5074 51.6893 77.8689ZM58.0717 5.12137C56.6682 6.56101 55.2678 7.99859 53.8539 9.44651L54.337 9.62984L54.4203 9.68473L55.424 8.48951L58.3299 9.59359C58.3622 10.1342 58.3903 10.6469 58.4174 11.1824C58.5975 11.2518 58.7724 11.316 59.0119 11.403L58.6475 5.34612C58.4642 5.27776 58.3029 5.21355 58.0728 5.12137H58.0717ZM37.1368 3.40416C37.3992 5.23633 37.6574 7.02294 37.9197 8.83751C38.1405 8.80541 38.3112 8.77744 38.509 8.75051C38.4174 8.09491 38.3341 7.47659 38.2425 6.82616C38.6069 6.77126 38.937 6.72051 39.2691 6.67494C39.748 6.61073 40.227 6.53719 40.6466 6.26687C41.314 5.84119 41.5993 5.24151 41.4524 4.45334C41.314 3.74698 40.8902 3.29851 40.1947 3.15662C39.8654 3.09383 39.5283 3.08126 39.1952 3.11933C38.5184 3.18873 37.8458 3.30266 37.1368 3.40416ZM84.5686 43.3206C84.528 43.1704 84.5186 42.9964 84.4353 42.868C84.173 42.4506 83.9241 42.0104 83.5972 41.6489C82.8278 40.8017 81.8105 41.1591 81.3316 41.7453C81.0107 42.1275 80.785 42.5795 80.6725 43.0648C80.558 43.5826 80.9078 43.9493 81.4284 43.8302C81.6491 43.7784 81.8699 43.7017 82.0864 43.623C82.2792 43.5469 82.4854 43.5102 82.6927 43.515C82.9 43.5198 83.1042 43.5661 83.2932 43.651C83.4452 43.7193 83.6024 43.7887 83.7627 43.8291C84.2011 43.9534 84.5415 43.7245 84.5686 43.3216V43.3206ZM7.83182 44.0352C8.23788 43.999 8.41697 43.8436 8.40343 43.4759C8.40024 43.3398 8.37347 43.2053 8.3243 43.0782C8.11233 42.5697 7.79355 42.112 7.38932 41.736C6.8604 41.2367 6.23882 41.1539 5.62557 41.5485C4.96234 41.9793 4.64895 42.6474 4.51568 43.3993C4.46049 43.71 4.74577 44.0083 5.06854 43.9897C5.30801 43.9762 5.55685 43.9254 5.77758 43.8384C6.28463 43.6417 6.77295 43.6147 7.26959 43.8529C7.44451 43.9358 7.64337 43.9772 7.83182 44.0363V44.0352ZM25.4756 12.5982C25.4433 12.7266 25.4152 12.8281 25.3923 12.9286C25.208 13.7023 24.7613 14.2657 24.0159 14.5598C22.9559 14.9762 21.7815 14.4956 21.188 13.4278C20.4144 12.0296 21.2016 10.4222 22.7862 10.1839C23.0392 10.1477 23.2964 10.1477 23.5775 10.129C23.5963 9.94159 23.615 9.77691 23.6296 9.61119C22.477 9.35537 21.2297 10.0327 20.6487 11.0042C20.023 12.0534 20.2249 13.4692 21.1464 14.4221C22.0126 15.3201 23.3985 15.5531 24.4438 14.9814C25.3975 14.4635 26.0285 13.4558 25.9504 12.6407C25.7918 12.6304 25.6335 12.6166 25.4756 12.5992V12.5982ZM15.0014 56.3965C15.0154 56.3793 15.028 56.3609 15.0388 56.3416C14.688 56.3323 14.6703 56.093 14.6609 55.86L14.5776 53.9864C14.5734 53.8673 14.588 53.744 14.5922 53.6239C14.6151 53.6239 14.638 53.6197 14.6609 53.6197C14.9514 54.5726 15.246 55.5254 15.5355 56.4783H15.6417L16.5444 53.6249C16.586 53.7078 16.5996 53.7254 16.5996 53.744C16.5902 54.4307 16.5808 55.1132 16.5683 55.8009C16.5683 55.9149 16.5683 56.034 16.5309 56.1396C16.4934 56.2453 16.4163 56.3364 16.3882 56.383H17.7282C17.4242 56.3188 17.3825 56.0847 17.3784 55.8507C17.3555 55.0086 17.3315 54.1604 17.3232 53.3173C17.318 52.9144 17.3367 52.9144 17.7147 52.7994C17.723 52.7953 17.723 52.7725 17.7376 52.7363H16.6131C16.3882 53.4923 16.2216 54.2753 15.9176 55.0128H15.8301C15.5959 54.2526 15.3564 53.4965 15.1221 52.7311H14.0018C14.0341 52.7725 14.0435 52.7953 14.0622 52.8036C14.4214 52.9424 14.435 52.9465 14.4308 53.3214C14.4204 54.032 14.4256 54.7424 14.3756 55.4478C14.3517 55.7916 14.4631 56.2453 13.9467 56.4006C14.3007 56.3965 14.6515 56.3965 15.0014 56.3965ZM62.2406 61.5181C62.25 61.5005 62.2635 61.4818 62.2729 61.4632C61.9917 61.4363 61.9407 61.2478 61.9314 61.0375C61.9001 60.3912 61.872 59.7449 61.8491 59.0945C61.8439 58.9702 61.8491 58.847 61.8491 58.7237C61.872 58.7186 61.9001 58.7186 61.923 58.7144C62.2125 59.6673 62.5071 60.6201 62.7976 61.573C62.8257 61.573 62.8528 61.5782 62.8851 61.5782C62.9267 61.4953 62.9725 61.4176 63.0006 61.3296C63.2443 60.5611 63.4837 59.7864 63.7284 59.0127C63.7513 58.9392 63.7878 58.8698 63.8159 58.8014L63.8804 58.8149V59.0583C63.8659 59.6766 63.8565 60.2949 63.8388 60.9091C63.8336 61.138 63.8888 61.4042 63.5066 61.4632L63.567 61.5088H65.008C64.7915 61.4363 64.6717 61.2985 64.6634 61.0738C64.6311 60.2452 64.5843 59.4156 64.5801 58.5818C64.5801 58.3022 64.5155 57.9314 64.9664 57.8486H63.8846C63.7784 58.2338 63.6774 58.6139 63.567 58.9941C63.4515 59.3742 63.3276 59.7543 63.2026 60.1302C63.1756 60.1302 63.1433 60.1251 63.1152 60.1251C62.9913 59.7543 62.8622 59.3793 62.7466 59.0075C62.6288 58.6242 62.5153 58.2396 62.4061 57.8537H61.315C61.6742 58.0132 61.72 58.064 61.7106 58.4669C61.69 59.237 61.6625 60.0069 61.6284 60.7765C61.619 61.0831 61.6003 61.3897 61.2223 61.514C61.5638 61.5181 61.9043 61.5181 62.2406 61.5181ZM52.339 57.8537C52.6659 57.9366 52.642 58.1872 52.6472 58.4254C52.6472 58.6326 52.6513 58.8377 52.6513 59.0448V59.4518H51.6247C51.6477 58.9443 51.5696 58.4576 51.6799 57.9998C51.7716 57.949 51.8361 57.9128 51.9517 57.8527H50.5929C50.6762 57.9677 50.8376 58.0868 50.8418 58.2111C50.873 59.0624 50.8928 59.92 50.8782 60.7713C50.8741 61.0375 50.9615 61.3948 50.5471 61.5046H51.8871C51.6664 61.4083 51.6341 61.225 51.6289 61.0375C51.6206 60.7164 51.6206 60.3954 51.6206 60.0743V59.6859H52.6336C52.6336 60.1665 52.6513 60.616 52.6232 61.0603C52.6149 61.2157 52.4993 61.3669 52.4441 61.5005H53.729C53.4853 61.4218 53.4166 61.2478 53.4114 61.0323C53.402 60.1261 53.3885 59.2188 53.3843 58.3115C53.3843 58.2017 53.4301 58.0919 53.4489 58.0008C53.5499 57.9542 53.6186 57.9179 53.6884 57.8858C53.6832 57.8755 53.6832 57.8672 53.6779 57.8527H52.34L52.339 57.8537ZM58.9525 58.0091C59.2607 57.9407 59.4586 58.0319 59.5648 58.2753C59.698 58.5818 59.7584 58.9164 59.6241 59.2323C59.5648 59.3793 59.4086 59.4933 59.2836 59.6082C59.2326 59.6538 59.1504 59.6631 59.09 59.6859C59.2701 60.1302 59.4356 60.5611 59.6147 60.9868C59.8365 61.5088 60.4164 61.7428 60.9599 61.5316C60.9693 61.5274 60.9651 61.5046 60.9693 61.4901C60.5737 61.2892 59.8823 60.0608 59.8729 59.5388C59.9656 59.4612 60.0666 59.3876 60.1541 59.3058C60.4539 59.0168 60.5091 58.6595 60.38 58.2929C60.2551 57.949 59.9323 57.8579 59.597 57.8351C59.5596 57.8299 59.5189 57.8299 59.4825 57.8299C58.9848 57.8299 58.4871 57.8299 57.9895 57.8351C57.9343 57.8351 57.8791 57.8486 57.8187 57.8579L57.7594 57.9169C58.1967 57.9034 58.1696 58.1789 58.1696 58.4348V60.7713C58.1696 61.0551 58.2425 61.3762 57.8656 61.514H59.2795C58.9525 61.3068 58.9473 61.3068 58.9432 61.0831C58.9244 60.2079 58.9109 59.3286 58.9015 58.4534C58.9015 58.3063 58.9328 58.1603 58.9525 58.0081V58.0091ZM39.1213 61.4767C38.8714 61.3897 38.8162 61.2157 38.8162 60.9826C38.812 60.0608 38.7933 59.1359 38.7891 58.2152C38.7891 58.1241 38.8349 58.0319 38.8537 57.9542C39.1806 57.8993 39.3784 58.0226 39.4846 58.3478C39.5763 58.6274 39.5992 58.9112 39.5034 59.2002C39.4065 59.4746 39.19 59.5937 38.9453 59.6258C39.0286 59.8009 39.0973 59.9428 39.1577 60.0847C39.3003 60.4275 39.4201 60.7858 39.5815 61.1245C39.7657 61.5139 40.4665 61.688 40.8569 61.4591C40.4061 61.1701 39.747 59.9977 39.7512 59.4933C39.848 59.4156 39.9448 59.3421 40.0323 59.2602C40.3363 58.9702 40.3738 58.6139 40.2541 58.2473C40.1385 57.9034 39.8209 57.8258 39.494 57.7895C39.4388 57.7843 39.3878 57.7843 39.3326 57.7843C38.8349 57.7843 38.3372 57.7843 37.8406 57.7895C37.7896 57.7895 37.7438 57.803 37.6699 57.8123C38.052 57.9998 38.052 57.9998 38.052 58.4306C38.052 59.2178 38.052 60.0018 38.0478 60.79C38.0478 61.0644 38.0895 61.3721 37.7063 61.4767H39.1213ZM24.1658 59.6445C24.2491 59.8413 24.3272 60.0205 24.4001 60.1986C24.5198 60.4969 24.626 60.7993 24.7645 61.0872C24.9623 61.5046 25.6443 61.6921 26.0305 61.486C25.4225 60.9681 25.1872 60.2359 24.9165 59.5161C25.0081 59.4477 25.0685 59.4021 25.1278 59.3607C25.2896 59.2423 25.4105 59.077 25.4739 58.8874C25.5373 58.6978 25.5401 58.4934 25.4818 58.3022C25.3861 57.9863 25.1091 57.8123 24.6677 57.7895C24.6073 57.7843 24.5427 57.7843 24.4834 57.7843C24.0086 57.7843 23.5348 57.7843 23.0601 57.7895C23.0143 57.7895 22.9632 57.803 22.9174 57.8123C22.9039 57.8299 22.8904 57.8486 22.8716 57.8672C23.2027 57.862 23.2631 58.0681 23.2631 58.2929C23.2631 59.1774 23.2496 60.0619 23.2444 60.9453C23.2444 61.1887 23.1933 61.3803 22.9216 61.4632H24.3449C24.096 61.4083 24.0086 61.2384 24.0086 61.0189C24.0044 60.0753 24.0003 59.1318 24.0044 58.1872C24.0044 57.9449 24.1471 57.8579 24.3688 57.9677C24.464 58.0148 24.5448 58.0863 24.6031 58.1748C24.9623 58.7372 24.7551 59.4021 24.1658 59.6455V59.6445ZM24.0232 54.5633C24.1606 54.9164 24.2939 55.2551 24.424 55.5948C24.7322 56.3923 24.93 56.5197 25.7817 56.4472C25.8327 56.4421 25.8837 56.4193 25.966 56.3923C25.5058 56.1676 24.8467 55.0356 24.7967 54.4214C24.8696 54.3623 24.9623 54.3023 25.0362 54.2298C25.3173 53.9594 25.4371 53.6384 25.335 53.2531C25.2476 52.9051 24.9758 52.7818 24.6583 52.7269C24.5593 52.71 24.4589 52.7024 24.3584 52.7042C23.8711 52.7042 23.3828 52.7042 22.8904 52.7083C22.8582 52.7096 22.8267 52.7174 22.7977 52.7311C22.8945 52.8502 23.0465 52.9558 23.0736 53.0832C23.1288 53.3359 23.1257 53.5969 23.1205 53.8579C23.1153 54.5042 23.0975 55.1547 23.0882 55.8009C23.083 56.0433 23.1111 56.3043 22.779 56.3913H24.1564C23.9263 56.3229 23.8618 56.1583 23.8566 55.947C23.843 55.0863 23.8295 54.2246 23.8201 53.3639C23.8201 53.2086 23.8566 53.0522 23.8753 52.9103C24.1606 52.7963 24.4001 52.9237 24.5208 53.2313C24.7738 53.8579 24.5802 54.3623 24.0232 54.5633ZM40.3675 37.3145C40.4186 37.1912 40.455 37.1136 40.4779 37.0307C40.6445 36.458 40.6674 35.8717 40.5799 35.2855C40.3675 33.8283 39.8563 32.5139 38.7194 31.5052C38.0239 30.8879 37.2638 30.3835 36.3424 30.1681C36.1862 30.1318 36.0113 30.1453 35.8499 30.137C35.8447 30.1681 35.8363 30.196 35.8311 30.2281C35.9144 30.2737 35.9925 30.3234 36.0758 30.3607C36.8321 30.6704 37.4995 31.1614 38.0187 31.79C39.014 32.9904 39.594 34.3969 40.0364 35.8676C40.1697 36.3161 40.2478 36.7925 40.3675 37.3155V37.3145ZM52.0485 54.5094C52.0298 54.3623 52.0204 54.1428 51.9798 53.9273C51.8548 53.2438 51.4863 52.8502 50.8834 52.7311C50.2795 52.6172 49.6757 52.8595 49.3591 53.4281C48.9031 54.2474 48.8937 55.1226 49.331 55.947C49.7642 56.7579 50.998 56.8222 51.5883 56.1127C51.9558 55.6673 52.0204 55.1319 52.0485 54.5094ZM77.6781 54.5778C77.6781 54.4266 77.6875 54.2702 77.6781 54.12C77.6229 53.4136 77.2273 52.8875 76.6515 52.7539C75.9466 52.5944 75.3292 52.8409 74.9887 53.4965C74.5785 54.2795 74.6066 55.0956 74.9658 55.8973C75.0304 56.0392 75.1408 56.1666 75.2605 56.2681C75.9695 56.8543 77.0336 56.6306 77.4522 55.8144C77.65 55.4302 77.7062 55.0086 77.6781 54.5778ZM65.5286 9.47448C65.6296 9.30048 65.7087 9.15755 65.8056 8.98769C64.5478 8.26476 63.314 7.55426 62.0563 6.83548C61.9553 7.00948 61.872 7.15655 61.7804 7.32123C62.3322 7.6423 62.8434 7.94369 63.3828 8.25544C62.554 9.68887 61.7387 11.0912 60.9089 12.5257C61.089 12.6303 61.2411 12.7225 61.4253 12.8323C62.2635 11.3978 63.0829 9.98301 63.9127 8.55787C64.4697 8.86858 64.981 9.15859 65.5286 9.47448ZM32.2266 61.5554C32.2307 61.4539 32.2443 61.3721 32.2401 61.2892C32.2307 60.9547 32.1985 60.6201 32.2037 60.2856C32.2084 59.7448 32.2222 59.204 32.2453 58.6637C32.2589 58.3302 32.1662 57.9407 32.641 57.8123H31.5269C31.5123 57.8299 31.4936 57.8486 31.4801 57.8672C31.9403 57.8713 31.9777 58.1883 31.9913 58.4897C32.0142 59.0624 32.0142 59.631 32.0194 60.2038C32.0194 60.2131 32.0007 60.2214 31.9496 60.2587C31.4988 59.4342 31.0469 58.6139 30.6055 57.8123H29.5591C29.9006 57.862 29.9829 58.0919 29.9964 58.3799C29.9964 58.4172 30.0016 58.4576 30.0016 58.4938C29.9839 59.1639 29.9974 59.8371 29.937 60.5062C29.9058 60.849 30.0516 61.3213 29.5133 61.4591H30.7065C30.7158 61.4404 30.7294 61.4176 30.7377 61.399C30.3004 61.4311 30.1994 61.1701 30.1953 60.8356C30.1859 60.1261 30.1817 59.4197 30.1723 58.7103C30.1723 58.6916 30.1953 58.6782 30.2275 58.6326C30.3525 58.8563 30.467 59.0572 30.5774 59.2644L31.6133 61.1753C31.7424 61.399 31.9038 61.5688 32.2266 61.5554ZM40.9537 52.7767C40.9496 52.7632 40.9496 52.7497 40.9444 52.7311H39.8074L39.7605 52.7912C40.2863 52.7912 40.2634 53.1713 40.2947 53.4872C40.3321 53.8217 40.3363 54.1562 40.3467 54.4908C40.3551 54.7145 40.3467 54.9392 40.3467 55.164C40.3134 55.1733 40.2811 55.1826 40.2447 55.1909L38.8953 52.7311H37.8677C37.8541 52.7497 37.8448 52.7684 37.8312 52.786C38.2092 52.8005 38.2821 53.0377 38.2779 53.3173C38.255 54.1469 38.2227 54.9765 38.1904 55.8103C38.1811 56.062 38.1446 56.3043 37.8312 56.383H39.0473C38.5361 56.1945 38.5174 56.1945 38.4903 55.6953C38.458 55.0262 38.458 54.353 38.4487 53.6839C38.4487 53.6477 38.4716 53.6115 38.5038 53.5327C38.6048 53.7161 38.6923 53.858 38.7704 54.005L39.9542 56.1769C40.0024 56.2769 40.0817 56.3589 40.1803 56.4107C40.2789 56.4626 40.3916 56.4815 40.5019 56.4648C40.5071 56.3509 40.5206 56.2494 40.5206 56.1438C40.5206 55.2738 40.5206 54.4079 40.5258 53.5379C40.5258 53.3774 40.53 53.2127 40.581 53.0615C40.6122 52.9652 40.7236 52.8958 40.81 52.8233C40.8517 52.7994 40.9079 52.7953 40.9537 52.7767ZM66.8457 55.1733C66.9384 55.1091 66.9883 55.077 67.0435 55.0407C67.0394 55.0262 67.0394 55.0086 67.0352 54.9941H65.7129C65.741 55.0542 65.7733 55.077 65.8097 55.0718C66.0305 55.0635 66.1086 55.2002 66.1179 55.3887C66.1273 55.6083 66.146 55.8331 66.1179 56.0485C66.1044 56.1676 66.0305 56.3592 65.9482 56.3778C65.8139 56.4099 65.5973 56.383 65.5099 56.2908C65.3374 56.11 65.2057 55.8946 65.1236 55.6591C64.9486 55.1102 64.9248 54.5247 65.0549 53.9636C65.1101 53.7026 65.2152 53.4364 65.3579 53.2075C65.5422 52.9051 65.9014 52.8181 66.2564 52.9279C66.5698 53.0201 66.6708 53.1764 66.6989 53.5876C66.7031 53.6425 66.7218 53.6933 66.7353 53.743C66.7582 53.743 66.7812 53.7388 66.7999 53.7388C66.8228 53.4592 66.8415 53.1796 66.8644 52.8875C66.7676 52.8502 66.6937 52.8005 66.6156 52.7953C66.3251 52.7725 66.0357 52.7363 65.7452 52.7591C64.981 52.8181 64.35 53.3494 64.2303 54.1013C64.1605 54.527 64.1699 54.9858 64.2396 55.4167C64.3406 56.0526 64.8196 56.4969 65.4183 56.5249C65.8649 56.5477 66.3168 56.4835 66.7676 56.4472C66.8415 56.4421 66.9103 56.3955 66.98 56.3737C66.7124 55.9656 66.8509 55.5669 66.8457 55.1723V55.1733ZM48.8937 61.514C48.9073 61.4912 48.9166 61.4684 48.9302 61.4446C48.6126 61.4725 48.5023 61.3078 48.4981 61.0468C48.4835 60.1302 48.47 59.2188 48.4606 58.3022C48.4606 58.2017 48.4929 58.1002 48.5116 58.0091C48.8157 57.9728 49.0364 58.1096 49.1238 58.4399C49.1926 58.7144 49.2113 59.0075 49.2019 59.2923C49.1926 59.6082 49.0551 59.8599 48.6866 59.9428C48.8615 59.9604 49.0093 59.9511 49.152 59.9107C49.6954 59.7408 50.0401 59.1857 49.9537 58.6461C49.8652 58.0826 49.5434 57.8392 48.8708 57.8258H48.825C48.3825 57.8258 47.9359 57.8258 47.4934 57.8299C47.4382 57.8299 47.383 57.8444 47.2539 57.8579C47.4288 57.9221 47.5392 57.9583 47.6683 58.005C47.687 58.1375 47.7193 58.2659 47.7193 58.3933C47.7235 59.196 47.7287 59.9977 47.7193 60.7993C47.7151 61.0924 47.7464 61.4176 47.332 61.5088C47.8526 61.514 48.3732 61.514 48.8937 61.514ZM55.0554 57.8527L55.0419 57.8941C55.0877 57.9128 55.1346 57.9449 55.1804 57.949C55.3876 57.9811 55.4427 58.1096 55.4105 58.2981C55.3969 58.3706 55.3876 58.4493 55.3647 58.5218C55.1148 59.3058 54.867 60.094 54.6088 60.8728C54.5255 61.1193 54.4484 61.3762 54.1121 61.5088H55.0648C54.9961 61.4042 54.8534 61.2851 54.867 61.1877C54.9086 60.8677 55.0054 60.5518 55.0877 60.2214C55.374 60.2079 55.6312 60.1945 55.9258 60.1758C55.9998 60.5797 56.0643 60.964 56.1289 61.3172C56.0373 61.4042 55.9862 61.4497 55.9258 61.5046H57.2794C57.0357 61.4083 56.967 61.2022 56.916 60.992C56.687 60.0287 56.46 59.0624 56.2299 58.1002C56.2122 58.0132 56.1799 57.9314 56.1518 57.8486C55.7697 57.8537 55.4146 57.8537 55.0554 57.8537V57.8527ZM68.5043 61.514C68.2555 61.4125 68.2096 61.1981 68.1586 61.0002C67.9952 60.3729 67.8387 59.7439 67.6891 59.1132C67.5922 58.701 67.5089 58.2846 67.4173 57.8579H66.2793C66.3141 57.9045 66.3648 57.937 66.4219 57.949C66.6437 57.977 66.7031 58.1044 66.6572 58.3063C66.6437 58.3664 66.6385 58.4254 66.6198 58.4855C66.3647 59.3019 66.1023 60.116 65.8326 60.9277C65.7545 61.1608 65.6858 61.4083 65.4141 61.5088H66.3074C66.2335 61.4124 66.0909 61.3078 66.1044 61.225C66.1554 60.8904 66.2522 60.5611 66.3303 60.2266C66.625 60.2079 66.8738 60.1944 67.1633 60.181C67.2372 60.5746 67.3111 60.9598 67.3892 61.3897C67.3153 61.4269 67.2507 61.4632 67.1362 61.5233C67.6422 61.5129 68.0712 61.5129 68.5043 61.5129V61.514ZM36.4631 56.3913C36.2424 56.2401 36.1966 56.208 36.1175 55.8879C35.878 54.9164 35.6573 53.945 35.422 52.9693C35.4043 52.8823 35.372 52.8005 35.3491 52.7363H34.1694C34.6723 52.9786 34.69 52.9838 34.5338 53.4965C34.2888 54.2987 34.0277 55.096 33.7509 55.8879C33.6863 56.0713 33.5343 56.2266 33.4333 56.383H34.2663C34.1975 56.2722 34.0549 56.1583 34.0643 56.062C34.1059 55.7409 34.2017 55.4302 34.285 55.0905H35.1283C35.1919 55.4612 35.2616 55.8465 35.3262 56.2038C35.2293 56.2867 35.1742 56.3281 35.1002 56.3913H36.4642H36.4631ZM36.56 61.4684C36.3163 61.3534 36.2518 61.1338 36.2008 60.9091C35.9707 59.9376 35.7447 58.9661 35.5146 57.9956C35.5011 57.9314 35.473 57.8713 35.4542 57.8071H34.3079C34.3443 57.8486 34.3589 57.8713 34.3766 57.8807C34.7775 58.0277 34.791 58.0319 34.6681 58.4493C34.4089 59.2872 34.1371 60.1168 33.8664 60.9505C33.7967 61.1608 33.7092 61.3627 33.4697 61.4632H34.3766C34.2985 61.3627 34.1517 61.2529 34.1653 61.1659C34.2111 60.8314 34.3079 60.501 34.3912 60.1717C34.6806 60.1572 34.9295 60.1437 35.22 60.1302C35.2793 60.4327 35.3532 60.7164 35.3897 61.0106C35.4084 61.1515 35.3532 61.3078 35.3303 61.4684H36.56ZM12.616 56.3923C12.5234 56.237 12.3953 56.0941 12.3484 55.9294C12.1576 55.2065 11.9764 54.4811 11.805 53.7533C11.7217 53.4136 11.6529 53.0749 11.5801 52.7363H10.4327C10.4379 52.7912 10.4556 52.8046 10.4743 52.8088C10.8804 52.9331 10.9075 52.9558 10.7825 53.3639C10.5364 54.1737 10.2786 54.9799 10.0089 55.7823C9.93084 56.0205 9.86212 56.2774 9.57684 56.3778H10.4514C10.3869 56.2722 10.263 56.1583 10.2713 56.0671C10.3182 55.7461 10.4098 55.4302 10.4931 55.0956C10.7784 55.0811 11.0366 55.0718 11.3218 55.0583C11.3812 55.3473 11.4322 55.6218 11.4926 55.8973C11.5342 56.0806 11.5655 56.2598 11.3635 56.3913H12.616V56.3923ZM21.3296 54.3717H20.2426C20.2468 53.8631 20.1739 53.3774 20.3207 52.8409C20.5831 52.8782 20.8549 52.8512 21.0496 52.96C21.1912 53.0428 21.237 53.2997 21.3296 53.4872C21.3432 53.2448 21.3525 52.9921 21.3661 52.7269H19.1473C19.1473 52.7404 19.1432 52.7539 19.1432 52.7684L19.4326 52.8782C19.4566 53.0149 19.5024 53.1713 19.5024 53.3225C19.5117 54.1013 19.5117 54.8802 19.5024 55.6539C19.4972 55.9522 19.544 56.2857 19.1067 56.383C19.1861 56.4123 19.2699 56.4277 19.3545 56.4286C19.898 56.4286 20.4415 56.4379 20.985 56.4234C21.1329 56.4193 21.3442 56.3923 21.414 56.296C21.5472 56.1075 21.5608 55.861 21.5243 55.6228C21.483 55.6569 21.4537 55.7034 21.441 55.7554C21.3348 56.1811 21.137 56.3002 20.5894 56.2681C20.3364 56.2546 20.3218 56.2266 20.2572 55.7274C20.2572 55.7181 20.2531 55.714 20.2531 55.7046V54.6047C20.4696 54.6047 20.6487 54.6099 20.8288 54.6047C21.0131 54.6099 21.2151 54.642 21.3307 54.3717H21.3296ZM62.6643 53.6021C62.6831 53.6021 62.7008 53.597 62.7237 53.597V52.8181H60.582C60.8537 52.8916 60.8912 53.0884 60.8912 53.309V55.8279C60.8912 56.1034 60.9141 56.3965 60.5091 56.4514C60.5591 56.4824 60.5872 56.4969 60.6143 56.4969C61.2733 56.4969 61.9314 56.5021 62.5904 56.4928C62.6591 56.4928 62.7653 56.4607 62.7934 56.4151C62.9232 56.1988 62.9674 55.9422 62.9174 55.6953C62.8809 55.7181 62.8622 55.7409 62.858 55.7678C62.7789 56.2401 62.6456 56.3509 62.0146 56.3602C61.7752 56.3644 61.6836 56.2732 61.669 56.0257C61.6461 55.6684 61.6367 55.3111 61.6284 54.9537C61.6284 54.8709 61.6461 54.7932 61.6606 54.6741H62.0105C62.176 54.6741 62.3468 54.6876 62.5123 54.6596C62.5904 54.6461 62.655 54.555 62.7289 54.4949C62.715 54.4824 62.7025 54.4685 62.6914 54.4535H61.6742V52.9931C61.9182 52.8995 62.1897 52.9058 62.429 53.0107C62.6966 53.1164 62.6092 53.3908 62.6643 53.6011V53.6021ZM14.1268 57.8123H12.0257C12.1038 57.9221 12.2599 58.0402 12.2652 58.1603C12.2829 59.1359 12.2787 60.1075 12.2693 61.0831C12.2693 61.2488 12.1964 61.3762 12.0028 61.399C11.9653 61.4042 11.933 61.4311 11.8549 61.4684C11.9424 61.4912 11.984 61.514 12.0257 61.514L13.8634 61.486C14.2278 61.4818 14.4672 61.051 14.2777 60.7164C14.2642 60.7486 14.2496 60.7765 14.2403 60.8035C14.1122 61.2529 13.7197 61.4725 13.273 61.3348C13.2001 61.312 13.1033 61.2208 13.0981 61.1566C13.0617 60.675 13.0481 60.1893 13.0252 59.6901H13.4438C13.5729 59.6901 13.7061 59.7046 13.8352 59.6766C13.9321 59.6538 14.0195 59.5803 14.1122 59.5254C14.0976 59.4943 14.0883 59.4663 14.0747 59.4342H13.0887V57.8941C13.3657 57.9314 13.6051 57.9407 13.8217 58.0039C14.1164 58.0868 13.9831 58.4027 14.0706 58.6005C14.0883 58.5953 14.107 58.5901 14.1299 58.586C14.1257 58.3436 14.1257 58.0919 14.1257 57.8123H14.1268ZM68.3617 52.8139C68.7063 52.8864 68.7157 53.1433 68.7157 53.4002V55.7782C68.7157 56.0619 68.7438 56.3685 68.3106 56.4514C68.3846 56.4783 68.4023 56.4928 68.4252 56.4928C69.0842 56.4928 69.7433 56.4969 70.4013 56.4876C70.4752 56.4876 70.5856 56.4462 70.6179 56.3913C70.745 56.1778 70.7862 55.9244 70.7335 55.6818C70.6895 55.7468 70.6597 55.8202 70.646 55.8973C70.5991 56.1303 70.47 56.2867 70.2264 56.3188C70.0973 56.3364 69.9682 56.3602 69.8391 56.3602C69.5996 56.3602 69.5122 56.2774 69.4945 56.0298C69.4799 55.8641 69.4622 55.6953 69.457 55.5306C69.4528 55.2551 69.457 54.9765 69.457 54.6648C69.7017 54.6782 69.8901 54.7062 70.0744 54.6958C70.2545 54.6876 70.4659 54.7103 70.5398 54.4535H69.4945V52.9144C69.7756 52.9465 70.0098 52.9507 70.2306 53.0066C70.5304 53.0843 70.4378 53.3908 70.4981 53.6063L70.5575 53.5928C70.5721 53.3411 70.5856 53.0884 70.5991 52.8181C69.8068 52.8139 69.0842 52.8139 68.3617 52.8139ZM21.5504 57.8123H19.3764C19.6762 57.8765 19.7179 58.1002 19.7179 58.325C19.7221 59.1867 19.7127 60.0474 19.7033 60.9091C19.6992 61.1701 19.695 61.4363 19.2941 61.4404C19.3722 61.4912 19.4232 61.5181 19.4732 61.5181C20.0935 61.5169 20.7138 61.5066 21.3338 61.487C21.4577 61.4784 21.5734 61.4223 21.6566 61.3306C21.7763 61.1753 21.7898 60.8086 21.7117 60.6885C21.693 60.7403 21.6753 60.7817 21.6659 60.8221C21.5514 61.2571 21.1172 61.4953 20.6935 61.3348C20.6154 61.3078 20.5279 61.1887 20.5186 61.1017C20.4873 60.7765 20.4769 60.4461 20.4686 60.1209C20.4634 59.979 20.4686 59.8413 20.4686 59.6952H21.0902C21.2838 59.6952 21.4723 59.6849 21.5556 59.4467H20.5102V57.9035C20.7861 57.9407 21.0204 57.9449 21.2422 58.0091C21.5233 58.0868 21.4629 58.3799 21.5597 58.5818C21.5504 58.3343 21.5504 58.0868 21.5504 57.8123ZM39.9958 42.6702C39.3232 41.9742 38.913 41.1404 38.6423 40.2331C38.3706 39.331 38.2456 38.4051 38.1634 37.4616C37.573 38.4786 37.4075 39.5278 37.8677 40.6277C38.2737 41.6075 38.9089 42.3677 39.9958 42.6702ZM10.0828 57.8071C10.391 57.9904 10.4191 58.0039 10.3411 58.3664C10.1932 59.0303 10.0183 59.6859 9.85691 60.3405C9.84754 60.3778 9.81526 60.4099 9.76008 60.4876C9.51124 59.6176 9.21659 58.8107 9.11559 57.9635C9.22596 57.9086 9.29572 57.8713 9.41025 57.8123H7.96926C8.2358 57.89 8.30556 58.1002 8.36907 58.3198C8.45757 58.6274 8.54919 58.934 8.63665 59.2416C8.82094 59.8786 9.00106 60.5155 9.18848 61.1514C9.24886 61.3586 9.36027 61.5181 9.61328 61.5688C9.64451 61.4725 9.67783 61.399 9.70074 61.3213C9.98602 60.4368 10.263 59.5482 10.5618 58.6637C10.6722 58.3343 10.7096 57.9314 11.1417 57.7937C10.7877 57.8071 10.4337 57.8071 10.0828 57.8071ZM41.364 57.7978C41.5243 57.9532 41.7138 58.0826 41.8283 58.2608C42.3218 59.0489 42.5842 59.9013 42.4915 60.8501C42.4645 61.1514 42.4135 61.3679 42.0824 61.4218C42.0772 61.4218 42.0824 61.4497 42.0772 61.4591H43.667C43.2808 61.2851 43.2526 61.2664 43.2485 61.0282C43.2391 60.6574 43.1839 60.2721 43.2579 59.9148C43.4234 59.1173 43.6077 58.3022 44.3854 57.8299C44.0085 57.6652 43.7139 57.7667 43.5713 58.1468C43.4234 58.5446 43.3078 58.9578 43.1746 59.3648C43.1516 59.4384 43.1235 59.5067 43.1017 59.5803C43.0319 59.5078 43.0184 59.4425 42.9996 59.3783C42.8705 58.9433 42.7508 58.499 42.5988 58.0681C42.5624 57.9583 42.4197 57.8216 42.3135 57.8123C41.9959 57.775 41.6638 57.7978 41.365 57.7978H41.364ZM32.2026 52.8274C31.6279 52.4981 30.6377 52.6576 30.1442 53.1205C29.7486 53.4872 29.582 53.9543 29.5549 54.4721C29.5279 55.0035 29.5914 55.5254 29.9422 55.9656C30.4441 56.5891 31.4061 56.5663 31.959 56.3696C31.9913 56.3551 32.0423 56.3323 32.0517 56.3043C32.1568 56.0164 32.2172 55.7233 32.1568 55.4157C32.0975 55.5255 32.0694 55.6404 32.0371 55.7554C31.9267 56.1262 31.6779 56.3281 31.3291 56.3281C30.9595 56.3281 30.6742 56.0982 30.5451 55.6404C30.3337 54.8978 30.3285 54.1469 30.5961 53.4136C30.6694 53.2382 30.7794 53.0804 30.9189 52.9507C31.1396 52.7446 31.4113 52.7591 31.6737 52.873C31.9267 52.9838 32.0423 53.1806 32.0277 53.4551C32.0236 53.5327 32.0465 53.6156 32.06 53.6933C32.0829 53.6933 32.1121 53.6891 32.1339 53.6891L32.2026 52.8274ZM47.687 55.5172C47.6547 55.5068 47.6183 55.5027 47.586 55.4933C47.5537 55.6218 47.5256 55.7502 47.484 55.8745C47.3924 56.1676 47.1987 56.3592 46.8853 56.4058C46.573 56.4514 46.3283 56.3188 46.1669 56.0578C46.0794 55.9149 45.992 55.7554 45.9732 55.599C45.9157 55.1324 45.8879 54.6626 45.8899 54.1925C45.9004 53.8176 46.0055 53.4551 46.2502 53.1485C46.4439 52.9051 46.7427 52.8233 47.0561 52.9279C47.3601 53.0294 47.4798 53.2034 47.4934 53.5462C47.4986 53.6197 47.5163 53.6933 47.5256 53.7616C47.5485 53.7616 47.5767 53.7575 47.5985 53.7575C47.6183 53.4685 47.636 53.1847 47.6589 52.8875C47.2539 52.6948 46.853 52.7125 46.4668 52.7818C45.6786 52.9237 45.1767 53.4644 45.0476 54.294C44.9508 54.9123 44.9883 55.5213 45.3933 56.034C45.7942 56.5384 46.8437 56.7403 47.4288 56.4421C47.4746 56.4193 47.535 56.3778 47.5433 56.3364C47.5996 56.0671 47.6412 55.7916 47.687 55.5172ZM71.6122 57.949C71.5341 57.8993 71.507 57.8713 71.4696 57.862C70.8251 57.6839 69.8714 57.7429 69.3372 58.4855C68.9551 59.0168 68.9322 59.6124 69.0009 60.2172C69.1352 61.3803 70.5075 62.0359 71.5018 61.4042C71.5529 61.1287 71.6268 60.8407 71.5851 60.5342C71.507 60.6709 71.4748 60.8169 71.4238 60.9547C71.3269 61.2208 71.1385 61.3948 70.8574 61.4363C70.5627 61.4818 70.3003 61.3897 70.1389 61.1287C70.0316 60.9541 69.9522 60.7641 69.9036 60.5652C69.7868 60.0664 69.7729 59.5491 69.863 59.0448C69.9224 58.7051 70.0098 58.3716 70.2722 58.1189C70.494 57.9035 70.7564 57.8713 71.0375 57.977C71.3134 58.0774 71.4519 58.2794 71.4602 58.5673C71.4654 58.6367 71.4748 58.7051 71.4789 58.7745C71.5018 58.7745 71.5247 58.7693 71.5487 58.7693C71.5758 58.4948 71.5945 58.2204 71.6122 57.949ZM80.1009 56.4783C79.7417 56.3136 79.7188 56.2867 79.7094 55.9107C79.703 55.6436 79.7013 55.3763 79.7042 55.1091C79.7042 55.0128 79.723 54.9165 79.7365 54.7984C80.0041 54.7984 80.2477 54.8025 80.4924 54.7932C80.6444 54.788 80.7912 54.7518 80.7964 54.5498H79.7094C79.7323 54.0143 79.649 53.5006 79.7875 52.9372C80.0457 52.9693 80.2987 52.9652 80.5195 53.0428C80.7912 53.134 80.6944 53.4509 80.7642 53.6663L80.8329 53.6518V52.8181H78.6318C79.0004 52.8782 78.9723 53.1661 78.9764 53.4136C78.9858 54.2204 78.9858 55.0314 78.9764 55.8372C78.9723 56.0858 78.991 56.3602 78.6818 56.4835C79.1472 56.4783 79.6261 56.4783 80.1009 56.4783ZM79.193 61.5326C78.8203 61.3803 78.8203 61.3803 78.7651 60.9961C78.7506 60.913 78.7429 60.8288 78.7422 60.7444C78.737 59.9428 78.737 59.1411 78.737 58.3384C78.737 58.238 78.7609 58.1323 78.7786 57.9677C79.0368 58.0091 79.2805 58.0091 79.4929 58.0919C79.774 58.2017 79.6074 58.5166 79.7417 58.7144L79.7834 57.8341H76.9878V58.7921C77.0836 58.5124 77.093 58.2245 77.245 58.1002C77.4063 57.9728 77.701 58.0039 77.9457 57.9677C77.978 58.0816 78.005 58.1417 78.005 58.1966C78.0009 59.1132 77.9863 60.0246 77.9863 60.9412C77.9863 61.2571 77.8666 61.4487 77.5303 61.4684C77.5261 61.4684 77.5219 61.4912 77.5126 61.5233C78.079 61.5316 78.636 61.5316 79.193 61.5316V61.5326ZM15.3606 57.803L15.4158 58.673C15.5303 58.4576 15.3887 58.151 15.6656 58.0371C15.877 57.949 16.13 57.9635 16.4205 57.9262V58.5363C16.4153 59.2778 16.4382 60.0153 16.4059 60.7579C16.3788 61.3348 16.3747 61.3441 15.9457 61.4218C15.9363 61.4218 15.9322 61.4446 15.9134 61.4818H17.6085C17.6272 61.4591 17.6397 61.4363 17.6595 61.4124C17.1337 61.4269 17.1941 61.0603 17.1524 60.7579C17.1472 60.7216 17.1472 60.6802 17.1472 60.644V58.2618C17.1472 58.1644 17.1712 58.0733 17.1847 57.9583C17.369 57.9583 17.5304 57.9407 17.6866 57.9635C17.9864 58.0049 18.0739 58.1189 18.078 58.4254C18.078 58.5083 18.0916 58.586 18.0968 58.6688C18.1145 58.6688 18.1384 58.6637 18.1561 58.6637L18.1978 57.7937C17.2441 57.803 16.333 57.803 15.3606 57.803ZM80.3997 61.4591C80.7912 61.6507 81.2983 61.6693 81.7075 61.5181C82.1229 61.3669 82.3801 61.0738 82.4592 60.6377C82.5373 60.1893 82.3759 59.8278 82.0031 59.5616C81.796 59.4156 81.5794 59.2872 81.3857 59.1266C81.2375 59.0075 81.1099 58.8651 81.0078 58.7051C80.8839 58.4948 80.9297 58.2701 81.0911 58.0919C81.2847 57.8765 81.5377 57.8765 81.7907 57.9583C82.0167 58.0319 82.15 58.1831 82.1552 58.4306C82.1552 58.5135 82.1687 58.6005 82.1729 58.6823C82.1958 58.6823 82.2187 58.6782 82.2426 58.6782V57.9086C82.0438 57.7802 81.772 57.7429 81.3993 57.7937C80.9526 57.8527 80.557 58.1645 80.4737 58.5725C80.3768 59.0396 80.4278 59.4746 80.8516 59.7864C81.0911 59.9656 81.3482 60.1209 81.57 60.3177C81.7075 60.4461 81.8282 60.6201 81.8969 60.7993C81.9792 61.0096 81.8511 61.2654 81.6668 61.3721C81.1921 61.6413 80.5611 61.2944 80.5382 60.7527L80.5247 60.4554C80.5018 60.4554 80.4778 60.4554 80.4549 60.4596C80.432 60.7941 80.4185 61.1328 80.3997 61.4591ZM74.4317 61.4591C74.9429 61.7283 75.6749 61.6103 76.0018 61.399C76.5547 61.0468 76.7109 60.1023 76.1215 59.6445C75.9414 59.5026 75.7394 59.3876 75.5645 59.2406C75.3844 59.0904 75.2001 58.9392 75.0575 58.7507C74.9054 58.5497 74.9513 58.2846 75.1126 58.0961C75.2647 57.9128 75.5739 57.8579 75.8363 57.9583C75.9464 57.9956 76.0411 58.0677 76.106 58.1637C76.1709 58.2597 76.2023 58.3742 76.1955 58.4897V58.6864H76.2736V57.8807C75.9976 57.7388 75.702 57.7564 75.4167 57.7978C74.9929 57.8579 74.666 58.0826 74.5327 58.5042C74.3942 58.934 74.4223 59.3555 74.7909 59.6807C75.0252 59.8879 75.2928 60.0526 75.5322 60.2587C75.6749 60.3829 75.8134 60.5238 75.8956 60.6895C76.0289 60.9547 75.9237 61.2664 75.679 61.3803C75.5504 61.4416 75.4077 61.468 75.2655 61.4569C75.1233 61.4458 74.9865 61.3976 74.869 61.3172C74.6295 61.1659 74.5556 60.9371 74.5785 60.6657C74.5837 60.5932 74.5691 60.5197 74.565 60.4513C74.5369 60.4513 74.514 60.4513 74.4869 60.4554C74.464 60.79 74.4453 61.1338 74.4317 61.4591ZM55.7509 55.6176C55.7197 55.6083 55.6864 55.6042 55.6541 55.5948C55.6364 55.6446 55.6125 55.6912 55.6041 55.7409C55.4938 56.2173 55.3459 56.3457 54.8711 56.3644C54.5723 56.3778 54.439 56.296 54.4297 56.0019C54.4068 55.1412 54.4151 54.2847 54.4151 53.423C54.4151 53.2945 54.4109 53.1537 54.4672 53.0428C54.5119 52.9465 54.641 52.8916 54.7337 52.8233H53.3104C53.5915 52.873 53.6644 53.0511 53.6644 53.2945C53.6644 54.1645 53.6644 55.0314 53.6602 55.9014C53.6602 56.1531 53.6238 56.3965 53.2917 56.4514C53.3427 56.4783 53.3843 56.4928 53.426 56.4928C54.0288 56.5063 54.6317 56.5239 55.2355 56.5197C55.3459 56.5197 55.526 56.4472 55.5583 56.3644C55.6541 56.1303 55.6916 55.8693 55.7509 55.6176ZM56.9025 52.8139C57.2065 52.8864 57.2523 53.1071 57.2523 53.3629C57.2523 54.179 57.2575 54.9941 57.2481 55.8103C57.244 56.0899 57.271 56.411 56.8379 56.4648C56.9577 56.4928 57.0503 56.4928 57.1472 56.4928C57.6438 56.4969 58.1415 56.4928 58.6392 56.5104C58.8234 56.5156 59.04 56.5705 59.141 56.383C59.2701 56.1448 59.3253 55.8693 59.2743 55.5897C59.191 55.7409 59.1545 55.9014 59.0858 56.0485C58.9796 56.2763 58.6256 56.4006 58.3029 56.3551C58.054 56.3188 57.9988 56.1355 57.9936 55.9387C57.9895 55.077 57.9936 54.2153 57.9988 53.3546C57.9988 53.2407 58.003 53.1112 58.0582 53.0201C58.1134 52.9331 58.2383 52.8875 58.3528 52.8088C57.851 52.8139 57.3773 52.8139 56.9025 52.8139ZM53.9226 50.4214C53.679 48.9787 54.1527 47.6778 54.715 46.3956C54.6849 46.3779 54.6543 46.361 54.6233 46.3449C54.3974 46.5551 54.1756 46.7623 53.9185 47.0046C53.8903 46.8803 53.8352 46.7706 53.8539 46.6701C53.9049 46.3863 53.9455 46.0973 54.0569 45.8363C54.1673 45.566 54.1808 45.3413 53.9684 45.1124C53.8404 45.3092 53.6509 45.4883 53.5915 45.7027C53.274 46.8399 53.1907 47.9989 53.402 49.1672C53.476 49.6157 53.5822 50.06 53.9226 50.4225V50.4214ZM55.0367 39.5278C55.576 39.5278 56.0695 39.5786 56.5485 39.8302C55.9904 40.2238 55.3928 40.5407 54.9409 41.0493C55.8613 40.5625 56.8192 40.1824 57.9207 40.0136C57.7958 39.9266 57.7406 39.8665 57.6709 39.8437C57.3585 39.7432 57.0462 39.6562 56.7328 39.5547C56.6401 39.5237 56.5526 39.4677 56.4652 39.4222C56.5204 39.3352 56.5568 39.2119 56.6359 39.1612C57.1742 38.8173 57.7594 38.6019 58.4038 38.5843C58.6485 38.5739 58.8932 38.5843 59.1368 38.5843C58.5465 38.2632 57.9436 38.1254 57.294 38.3139C56.6307 38.5014 56.0414 38.8401 55.4709 39.2212C55.3324 39.3176 55.1845 39.4222 55.0377 39.5278H55.0367ZM28.2712 61.4725C28.0223 61.3627 28.0182 61.1473 28.0129 60.9371C28.0088 60.1209 28.0036 59.3058 28.0088 58.4897C28.0088 58.2338 27.9484 57.9449 28.2712 57.8123H26.977C27.0603 57.9169 27.1935 58.0184 27.2258 58.1468C27.2768 58.3664 27.2768 58.6005 27.2716 58.8294C27.2675 59.4933 27.2487 60.153 27.2404 60.818C27.2352 61.0976 27.2404 61.3772 26.8854 61.4767C27.3497 61.4725 27.811 61.4725 28.2712 61.4725ZM73.6217 61.514C73.5478 61.4 73.4103 61.2851 73.4103 61.1659C73.3864 60.2172 73.3957 59.2644 73.3864 58.3157C73.3864 58.1054 73.4509 57.949 73.6633 57.8579H72.2307C72.6128 58.0319 72.6273 58.0453 72.6273 58.4441C72.6273 59.2457 72.6274 60.0432 72.6222 60.8449C72.6222 61.1193 72.618 61.4042 72.2723 61.5181C72.7325 61.514 73.1979 61.514 73.6217 61.514ZM28.4513 56.3913C28.2295 56.3229 28.1879 56.1531 28.1879 55.9667C28.1795 55.0904 28.165 54.2111 28.1608 53.3359C28.1608 53.1806 28.2066 53.0252 28.2295 52.8916C28.3357 52.8409 28.4044 52.8046 28.4742 52.7673C28.469 52.7591 28.469 52.7446 28.4638 52.7363H27.0644C27.0644 52.7497 27.0603 52.7673 27.0603 52.7818C27.1436 52.8088 27.2258 52.8367 27.3497 52.873C27.3685 52.9558 27.4143 53.0563 27.4195 53.1526C27.4236 54.0278 27.4236 54.9071 27.4143 55.7833C27.4101 56.0298 27.3914 56.296 27.0686 56.3872C27.5298 56.3923 27.99 56.3923 28.4513 56.3923V56.3913ZM37.293 22.6084C37.3992 22.2428 37.4637 21.9486 37.5647 21.6607C37.7813 21.0517 38.0436 20.4551 38.2331 19.842C38.4216 19.2413 38.61 18.6323 38.5455 17.9818C38.5143 17.6701 38.458 17.3635 38.2602 17.1067C38.205 17.8441 38.0072 18.5318 37.7865 19.2237C37.5647 19.9103 37.3721 20.6115 37.2107 21.3127C37.118 21.7197 37.1691 22.1413 37.294 22.6084H37.293ZM6.51369 39.5962C6.53243 39.6883 6.54076 39.8251 6.57825 39.9587C6.74796 40.5262 7.27375 40.6547 7.69751 40.2424C8.06192 39.8851 8.18062 39.2119 7.96822 38.7489C7.78497 38.3502 7.36538 38.2363 7.01033 38.4879C6.64696 38.7489 6.54597 39.1342 6.51369 39.5962ZM82.657 39.4636C82.6664 39.5185 82.6747 39.6428 82.7028 39.7619C82.7715 40.0415 82.9287 40.2518 83.2182 40.3212C83.5087 40.3843 83.7294 40.2383 83.896 40.0229C84.2177 39.6055 84.2916 39.1342 84.1126 38.6392C83.9324 38.1534 83.4306 38.0529 83.0579 38.4103C82.7715 38.6754 82.6612 39.0151 82.657 39.4636ZM6.14512 39.6376C6.14512 39.1518 5.95666 38.7355 5.6391 38.5149C5.24346 38.2456 4.82282 38.3823 4.67081 38.8359C4.53338 39.2575 4.6021 39.6645 4.8322 40.0405C5.05397 40.3937 5.38089 40.5542 5.64327 40.4755C5.95562 40.3802 6.14095 40.0726 6.14512 39.6376ZM82.3384 39.4998L82.2832 39.4729C82.2655 39.0555 82.15 38.6754 81.8189 38.3916C81.4867 38.1078 81.0588 38.1845 80.8516 38.5698C80.5611 39.098 80.8193 39.9721 81.3535 40.2559C81.6065 40.3895 81.8688 40.3698 82.0354 40.142C82.1687 39.9535 82.2426 39.7153 82.3384 39.4998ZM85.4567 40.5956C85.4245 40.3471 85.3745 40.0778 85.0882 39.9535C84.7987 39.8344 84.5499 39.9493 84.3333 40.1503C84.0522 40.4071 83.9231 40.7417 83.9137 41.1135C83.9095 41.3973 84.0012 41.6676 84.2917 41.7908C84.5728 41.9151 84.8164 41.7908 85.0288 41.6034C85.3183 41.3424 85.4338 41.0027 85.4567 40.5956ZM9.32279 40.7966C9.31862 40.5273 9.25407 40.2476 8.95837 40.114C8.66893 39.9814 8.41592 40.114 8.20352 40.3067C7.90471 40.5718 7.78497 40.925 7.78914 41.3144C7.79434 41.5847 7.89117 41.8364 8.16188 41.9462C8.43883 42.057 8.68767 41.9566 8.89903 41.7598C9.16661 41.5071 9.29988 41.1901 9.32279 40.7966ZM81.0453 41.2647C81.0453 40.7365 80.7912 40.3015 80.3862 40.1006C80.0041 39.9079 79.6168 40.0778 79.5481 40.4941C79.4648 40.9892 79.622 41.4159 80.0176 41.7318C80.2206 41.8913 80.4549 42.0063 80.7173 41.8737C80.9849 41.7453 81.0588 41.5029 81.0453 41.2647ZM4.91132 41.3973C4.91132 40.9063 4.69892 40.5221 4.33035 40.2932C3.90242 40.0322 3.45576 40.2383 3.40474 40.7375C3.35893 41.1767 3.51094 41.5526 3.83787 41.8457C4.05443 42.0384 4.31265 42.1575 4.59793 42.0291C4.87384 41.9048 4.9207 41.6448 4.91028 41.3973H4.91132ZM38.812 22.3474C38.3747 22.3381 37.8864 22.8518 37.7896 23.7953C37.725 24.4374 38.3331 25.4587 38.9182 25.6461C38.3654 24.5555 38.1259 23.4753 38.812 22.3474ZM42.1792 19.0807C42.5103 18.9212 42.6259 18.6685 42.6852 18.3899C42.8102 17.8027 42.8601 17.2164 42.782 16.6209C42.7175 16.1673 42.5748 15.7406 42.2115 15.4298C42.0959 15.3335 41.9533 15.2693 41.8242 15.1916C41.8012 15.26 41.8106 15.2828 41.82 15.3014C42.5238 16.4148 42.7269 17.5831 42.2021 18.8291C42.1698 18.8891 42.1834 18.9709 42.1792 19.0807ZM40.7236 21.6969C39.7887 22.2107 39.3784 24.6197 40.102 25.1925C39.9542 23.9745 40.3269 22.8466 40.7236 21.6969ZM36.6891 49.5981C36.3569 49.7348 36.0581 51.0046 36.2237 51.4344H36.8275C36.7765 50.8119 36.7349 50.2205 36.6891 49.5981ZM44.9144 17.6463C45.2965 17.8213 45.6609 17.9818 46.0201 18.1465C46.0378 18.1237 46.0513 18.1009 46.0701 18.0782C45.9691 17.9684 45.8681 17.8576 45.7713 17.7571C45.7577 17.6193 45.739 17.4919 45.7254 17.3677C45.7754 17.3128 45.8212 17.2672 45.8816 17.1978L45.5589 16.5888C45.5453 16.594 45.5318 16.6023 45.5172 16.6074C45.5547 16.768 45.587 16.9285 45.614 17.0611C45.3381 17.1937 45.0851 17.3128 44.8321 17.436C44.8738 17.5417 44.9008 17.6059 44.9154 17.6473L44.9144 17.6463ZM41.9074 20.6851C41.8606 21.4453 42.579 22.4074 43.2651 22.307C42.8143 21.7653 42.3593 21.2205 41.9074 20.6851ZM41.2161 24.6653C41.2255 25.7238 41.7679 26.1774 42.2344 26.2323C41.9116 25.7331 41.5618 25.1966 41.2161 24.6663V24.6653ZM51.1687 30.6859C50.9521 30.5761 50.7179 30.457 50.4597 30.3234C50.4409 30.4891 50.4274 30.6258 50.4139 30.7688L50.6023 30.9055C50.57 31.0474 50.5336 31.1851 50.4878 31.3778L51.1687 30.6859Z" fill="black"/>
</svg>
