<svg width="177" height="87" viewBox="0 0 177 87" fill="none" xmlns="http://www.w3.org/2000/svg">
<path d="M75.7893 22.0907L75.6488 21.6847C75.5219 21.3366 75.4142 20.9819 75.326 20.6221C75.3171 20.5185 75.2813 20.4191 75.2222 20.3334C75.1631 20.2477 75.0826 20.1787 74.9887 20.1332C74.0465 19.6574 73.3042 18.8647 72.8938 17.8961C72.701 17.5136 72.5954 17.0935 72.5846 16.6657V15.8547C72.5701 15.0422 72.8329 14.2489 73.3301 13.6041C73.593 13.1806 73.9386 12.8139 74.3466 12.5257C74.7545 12.2375 75.2164 12.0337 75.705 11.9262C75.9018 11.7025 76.2391 11.9262 76.4359 11.717C77.1579 11.6527 77.8855 11.7384 78.5724 11.9687C78.9368 12.0681 79.2742 12.2494 79.5563 12.5L79.0919 12.3737C78.9314 12.3232 78.7671 12.2858 78.6005 12.2618H77.6447C77.1231 12.2307 76.6056 12.3675 76.1683 12.6533C75.7292 12.8849 75.3405 13.2006 75.0246 13.5822C74.7087 13.9639 74.4718 14.4039 74.3275 14.877C74.2338 15.2509 74.1963 15.6372 74.2151 16.0225C74.1972 16.4991 74.2821 16.9739 74.464 17.4152C74.6459 17.8564 74.9207 18.2538 75.2698 18.5807C75.7302 19.0518 76.3068 19.3946 76.9419 19.575C76.9419 19.575 77.0252 19.6444 77.0679 19.6444C77.3209 19.6444 77.5604 19.7417 77.7853 19.7417C78.3059 19.749 78.8223 19.6485 79.3033 19.4486C79.7568 19.2595 80.1823 19.0101 80.5683 18.7071C80.7224 18.5952 80.8203 18.3995 80.9754 18.2596C80.9151 18.5745 80.7568 18.8624 80.5257 19.0851C80.1451 19.5487 79.6647 19.9214 79.1201 20.1757C78.6291 20.4625 78.0733 20.6211 77.5042 20.6366C77.2491 20.6573 76.995 20.6936 76.7441 20.7485C76.9502 21.2891 77.1293 21.8401 77.2793 22.3984C77.4334 22.8872 77.6166 23.3626 77.7426 23.7966C77.8696 24.2295 78.0653 24.7329 78.1643 25.1948C78.2694 25.6194 78.3964 26.0399 78.5443 26.4532C78.6703 26.8716 78.7973 27.2921 78.9379 27.696C79.0784 28.102 79.2606 28.6199 79.3731 29.0942C79.4855 29.5707 79.6823 30.0316 79.8093 30.4925C80.0342 31.3459 80.3008 32.1703 80.5673 33.0092C80.6943 33.4007 80.8203 33.8067 80.9338 34.2117L81.4814 36.0574C81.6918 36.7699 81.8885 37.4556 82.1416 38.1826C82.2712 38.5432 82.4837 38.8686 82.7621 39.1331C83.0404 39.3976 83.377 39.5938 83.745 39.7062C84.555 40.0096 85.4275 40.1153 86.2875 40.0138C86.8635 39.9677 87.4334 39.8647 87.9888 39.7062C88.651 39.4989 89.2874 39.2174 89.8858 38.8672C90.7055 38.4281 91.4351 37.84 92.0369 37.1335C92.4841 36.6367 92.8193 36.0505 93.0198 35.4142C93.1176 35.9942 93.0489 36.5907 92.823 37.1335C92.4385 38.0703 91.8251 38.8969 91.0384 39.5384C90.5226 39.9936 89.9625 40.3964 89.3663 40.7409H91.6985C92.3024 40.7409 92.8792 40.6435 93.4696 40.601C93.9901 40.5772 94.5066 40.5109 95.0157 40.4053C95.5363 40.3079 96.0569 40.2095 96.5764 40.0842L97.982 39.6927C98.4308 39.5664 98.8805 39.441 99.3022 39.3012C99.7239 39.1614 100.117 38.9656 100.526 38.8113C100.933 38.658 101.257 38.4757 101.622 38.308C101.986 38.1402 102.325 37.9589 102.662 37.7632C103.294 37.3776 103.903 36.9575 104.488 36.5048H104.573C104.657 36.5048 104.573 36.6446 104.573 36.6726C104.143 37.1292 103.673 37.5456 103.167 37.9165C102.886 38.0987 102.689 38.3929 102.395 38.5596C102.099 38.7274 101.453 39.2453 100.989 39.5384C100.258 39.9579 99.5 40.3359 98.74 40.7129C98.4026 40.8672 98.0518 40.9646 97.6999 41.0909C97.349 41.2162 96.8857 41.4265 96.4629 41.5518C96.0423 41.6782 95.5217 41.818 95.0573 41.9288L94.1588 42.1536C93.8631 42.223 93.5549 42.2509 93.2592 42.3483C92.9635 42.4467 92.7949 42.3483 92.5419 42.4601C92.2889 42.572 91.6985 42.4601 91.2914 42.601C90.4699 42.689 89.6432 42.7211 88.8176 42.6984C88.6489 42.6984 88.4667 42.8382 88.3116 42.7957C87.5488 42.6863 86.7768 42.6537 86.0074 42.6984C85.7826 42.6984 85.5858 42.5451 85.3463 42.5865C85.2323 42.6166 85.1132 42.6222 84.9968 42.6029C84.8805 42.5836 84.7696 42.5399 84.6716 42.4746C84.3211 42.4927 83.97 42.455 83.6315 42.3628C83.182 42.3359 82.7379 42.2513 82.3102 42.1111C82.1134 42.1111 81.9312 42.1111 81.748 42.0272C80.9619 41.761 80.1467 41.5943 79.3876 41.2867C78.9379 41.1313 78.4964 40.9552 78.0653 40.7554C77.7145 40.5731 77.3074 40.4612 76.9555 40.2789C76.6046 40.0977 75.9434 39.7196 75.3958 39.469C75.4551 39.528 75.5072 39.5933 75.5499 39.6647C75.705 39.8885 75.8456 40.1256 76.0142 40.3359C76.3953 40.7885 76.7982 41.2225 77.222 41.6357C77.8436 42.2416 78.4964 42.8164 79.1763 43.355C79.8908 43.8949 80.632 44.3989 81.3971 44.8651C81.7792 45.1116 82.178 45.3311 82.5913 45.5227C83.3202 45.8728 84.0771 46.1628 84.8549 46.3896L85.7815 46.6827C86.0772 46.7811 86.401 46.7946 86.7102 46.921C86.9986 46.9986 87.2964 47.0411 87.5952 47.0463L88.1429 47.1581C88.3116 47.1581 88.5083 47.1581 88.6635 47.242C88.6876 47.2532 88.7139 47.259 88.7405 47.259C88.7672 47.259 88.7934 47.2532 88.8176 47.242C89.4641 47.242 90.0972 47.3819 90.7292 47.3674C91.3622 47.3539 92.0504 47.3674 92.7105 47.3674C92.95 47.3674 93.1603 47.1996 93.4279 47.242C93.659 47.2907 93.8985 47.2907 94.1307 47.242C94.6784 47.1167 95.2552 47.1447 95.7893 47.0318C96.7382 46.8726 97.6768 46.6581 98.6005 46.3896C98.6624 46.3717 98.7277 46.3686 98.7911 46.3806C98.8544 46.3927 98.914 46.4196 98.9649 46.459L96.9408 47.242C96.5988 47.2545 96.2635 47.3403 95.958 47.4937C95.6217 47.5351 95.2937 47.6294 94.9876 47.7734C94.4816 47.7734 94.0464 48.053 93.582 48.0116C93.4279 48.0116 93.2873 48.0944 93.1322 48.1089C92.9781 48.1224 92.8094 48.1089 92.6824 48.2208L91.1935 48.3181L90.041 48.43H88.8884C88.6208 48.43 88.3397 48.3471 88.0586 48.3326C87.7878 48.3606 87.5151 48.3606 87.2433 48.3326C87.0038 48.2622 86.7519 48.3326 86.527 48.2342C86.3089 48.1846 86.0882 48.1472 85.8658 48.1224C85.3921 48.0333 84.9225 47.9152 84.4603 47.7734C83.9126 47.6201 83.3785 47.4378 82.7881 47.2555C82.7716 47.3295 82.7716 47.4062 82.7881 47.4802C82.9401 47.8427 83.1442 48.1814 83.392 48.4859C83.9117 49.0509 84.5502 49.495 85.262 49.7868C85.8013 49.9867 86.35 50.1596 86.907 50.3046C87.412 50.4579 87.9607 50.4434 88.4667 50.6392C89.2955 50.5698 90.0972 50.8215 90.926 50.7376C91.1935 50.7376 91.4465 50.6537 91.7131 50.6392C91.9838 50.6599 92.2566 50.6599 92.5283 50.6392C93.0062 50.5418 93.4977 50.5418 93.9339 50.4155C94.5255 50.3237 95.1085 50.1834 95.6768 49.996C95.7342 49.9706 95.7963 49.9575 95.8591 49.9575C95.9218 49.9575 95.9839 49.9706 96.0413 49.996L94.9876 50.4724C94.2605 50.838 93.4841 51.0968 92.6824 51.2409C92.1483 51.3238 91.6006 51.3807 91.0811 51.4791C90.4741 51.5434 89.8629 51.5661 89.2538 51.5485H87.3985C87.1871 51.5485 87.0184 51.3942 86.7946 51.4222C86.5697 51.4501 86.3864 51.3248 86.1761 51.3393C85.9698 51.3256 85.7666 51.2831 85.5722 51.213L85.01 51.1146C84.8093 51.0784 84.6116 51.0271 84.4186 50.9613C83.9356 50.7583 83.4661 50.5248 83.013 50.2622C82.5725 49.9267 82.1634 49.5523 81.7907 49.1436C81.2739 48.5542 80.9331 47.8327 80.8068 47.0608C80.8068 46.8226 80.7079 46.5844 80.6662 46.3337C80.2419 46.1122 79.829 45.8696 79.4293 45.6066C79.0649 45.327 78.6422 45.1592 78.3048 44.8506C77.9675 44.544 77.5739 44.3482 77.222 44.0686C76.8711 43.789 76.59 43.5373 76.2953 43.2576C75.9997 42.978 75.4801 42.4322 75.0584 42.0417C74.5091 41.5069 74.0062 40.9269 73.555 40.3079C73.1324 39.7323 72.7336 39.1397 72.3597 38.5317C71.9807 37.9165 71.5309 36.9522 71.1228 36.1557C70.8325 35.4984 70.6066 34.8148 70.4481 34.1144C70.3357 33.6669 70.0264 33.2754 70.0691 32.799C69.8442 32.6322 70.0691 32.3806 69.915 32.1983C69.7599 32.017 69.915 31.7788 69.915 31.5831C69.915 31.3873 69.915 31.1916 69.8161 31.0238C69.7893 30.9771 69.7751 30.9243 69.7751 30.8705C69.7751 30.8167 69.7893 30.7639 69.8161 30.7172C69.9567 30.5494 69.9004 30.3671 69.9004 30.1994C69.9377 29.5475 70.0605 28.9034 70.2659 28.2833C70.5064 27.5842 70.8281 26.913 71.2217 26.2844C71.4768 25.9105 71.7527 25.5511 72.0505 25.2082C72.242 24.9576 72.4482 24.7204 72.6689 24.4957C73.5054 23.6971 74.4132 22.9761 75.3812 22.3414C75.5103 22.2471 75.6467 22.1632 75.7893 22.0907ZM81.0598 39.3426C81.0598 39.3426 80.9754 39.2732 80.9619 39.2308C80.8911 38.7699 80.6662 38.3359 80.5673 37.8326C80.4694 37.3292 80.3008 36.9242 80.1612 36.4344C80.0196 35.9455 79.9072 35.5954 79.7666 35.1915C79.586 34.7868 79.4677 34.3573 79.4158 33.9176C79.1483 33.2994 78.9364 32.6589 78.7827 32.0036C78.6005 31.3459 78.3892 30.6747 78.1924 30.0181C77.9956 29.3604 77.7145 28.4376 77.4615 27.6546C77.2085 26.8716 77.0679 26.4801 76.9138 25.8794C76.7596 25.506 76.6465 25.117 76.5765 24.7194L76.3786 24.5226C75.9726 24.8312 75.578 25.0964 75.2271 25.4185C74.5946 25.9631 74.0369 26.5882 73.5685 27.2776C73.2956 27.7234 73.0605 28.1911 72.8657 28.6758C72.6762 29.1657 72.5305 29.6701 72.4305 30.1859C72.3916 30.8773 72.4293 31.571 72.5429 32.2542C72.6814 32.6685 72.8407 33.0735 73.0209 33.4712C73.176 33.8285 73.3748 34.1672 73.6112 34.4779C73.9548 34.9864 74.3556 35.4556 74.8054 35.8761C75.1261 36.1941 75.4739 36.4841 75.8456 36.742C76.3932 37.0786 76.8711 37.5115 77.4334 37.8046C78.3048 38.281 79.2044 38.6995 80.104 39.12C80.4163 39.2184 80.736 39.2929 81.0598 39.3426ZM51.0812 18.8894H54.3838C54.8055 19.5315 55.3677 20.0908 55.7894 20.735C56.2111 21.3771 56.5494 21.6154 56.9003 22.1332C57.2512 22.65 57.6166 23.0136 57.954 23.5314C58.2913 24.0482 58.713 24.3973 59.0639 24.9296C59.4158 25.4599 59.8094 25.7955 60.1186 26.3268C60.2727 26.565 60.483 26.7597 60.6527 26.9835C61.2285 27.6826 61.8053 28.3817 62.353 29.1087C62.7049 29.5707 63.1265 29.9756 63.4639 30.507C63.8012 31.0383 64.1948 31.3873 64.5176 31.9052C64.8403 32.423 65.3193 32.8135 65.6701 33.3034C66.021 33.7922 66.3021 34.0719 66.5697 34.5048C66.7405 34.7296 66.9237 34.944 67.1174 35.149C67.6796 35.8616 68.2564 36.5472 68.8041 37.2743C69.1695 37.7497 69.6058 38.1681 69.9567 38.6725C70.3075 39.1749 70.6595 39.5249 70.9822 39.9858C71.305 40.4477 71.7277 40.8807 72.0932 41.384C72.4576 41.8874 72.7814 42.2509 73.1614 42.7822C72.6929 42.8257 72.2233 42.8257 71.7558 42.7822H70.1951L66.1897 37.7766H39.2753L35.2563 42.3773H33.0074C32.7641 42.3967 32.5197 42.3967 32.2765 42.3773C32.2765 42.2934 32.3608 42.223 32.4035 42.167C32.9751 41.5352 33.5051 40.8672 33.9913 40.1681C34.1621 39.9392 34.3453 39.7196 34.539 39.5104C34.9606 39.0071 35.3823 38.4902 35.7759 37.9589C36.1694 37.4276 36.5359 37.092 36.8868 36.6311C37.2377 36.1692 37.6313 35.7508 37.9405 35.2329C38.1269 34.9781 38.3288 34.7358 38.5444 34.5059C38.9244 34.016 39.3461 33.5685 39.6834 33.1076C39.845 32.8757 40.0235 32.6558 40.2175 32.45C40.6528 31.9476 41.0609 31.4298 41.4545 30.8985C41.848 30.3671 42.2135 30.0316 42.5644 29.5707C42.9152 29.1087 43.2953 28.6903 43.618 28.1725C43.9408 27.6546 44.3354 27.347 44.6446 26.8996C44.9539 26.4532 45.3755 26.0192 45.7129 25.5014C46.0502 24.9845 46.4719 24.621 46.8092 24.1031C47.1466 23.5863 47.5682 23.2373 47.8775 22.7049C48.0628 22.5299 48.2596 22.3673 48.4668 22.2161C49.029 21.5035 49.6194 20.8179 50.1681 20.0773C50.3784 19.7977 50.6314 19.546 50.8563 19.2798C51.0812 19.0147 50.9833 19.0147 51.0812 18.8894ZM52.6846 20.6086L40.9484 35.2744H64.503L52.6835 20.6086H52.6846ZM122.704 18.9028H125.894C126.249 19.2529 126.569 19.6382 126.85 20.0494C127.012 20.2803 127.19 20.4999 127.384 20.706C127.819 21.2094 128.227 21.7272 128.621 22.2585C129.013 22.7899 129.393 23.1254 129.731 23.6567C130.068 24.1881 130.462 24.5371 130.799 25.055C131.136 25.5718 131.502 25.8794 131.824 26.3134C132.148 26.7463 132.542 27.1937 132.879 27.7116C133.216 28.2284 133.638 28.5919 133.989 29.1098C134.34 29.6266 134.733 29.9756 135.043 30.508C135.201 30.7369 135.38 30.9523 135.577 31.1501C136.013 31.6535 136.42 32.1703 136.828 32.7016C137.235 33.233 137.587 33.582 137.925 34.0999C138.262 34.6177 138.669 34.9802 138.993 35.4981C139.154 35.7301 139.332 35.9496 139.526 36.1547C139.948 36.6581 140.369 37.1614 140.763 37.7072C141.156 38.252 141.409 38.4902 141.719 38.8817C142.239 39.5384 142.745 40.2095 143.279 40.8527C143.814 41.4959 144.024 41.7476 144.389 42.2509C144.516 42.3907 144.614 42.5585 144.755 42.7398H141.944C140.538 41.1324 139.274 39.4131 137.882 37.7352H110.87C109.464 39.3292 108.241 41.035 106.864 42.7118H103.87L105.121 41.1044C105.487 40.657 105.88 40.224 106.231 39.7062C106.583 39.1883 106.962 38.8258 107.286 38.308C107.609 37.7901 108.044 37.4411 108.396 36.9097C108.747 36.3784 109.365 35.7777 109.801 35.149C109.982 34.9067 110.173 34.6726 110.377 34.4499C110.898 33.8347 111.417 33.2195 111.923 32.5898C112.429 31.9611 112.767 31.5271 113.188 30.9958C113.677 30.3818 114.146 29.7525 114.594 29.1087C115.016 28.4935 115.367 28.2284 115.718 27.7105C116.069 27.1927 116.435 26.8302 116.772 26.3123C117.109 25.7955 117.531 25.432 117.883 24.9141C118.234 24.3973 118.628 24.0482 118.937 23.5159C119.123 23.2621 119.324 23.0187 119.541 22.7899C119.776 22.5982 119.979 22.3714 120.146 22.1187C120.258 21.8525 120.539 21.7407 120.637 21.461C120.736 21.1814 120.946 21.084 121.101 20.8883C121.551 20.2026 122.141 19.5605 122.704 18.9028ZM124.361 20.6366C124.221 20.7764 124.067 20.9017 123.94 21.0561C123.453 21.6764 122.985 22.3105 122.535 22.9576C122.099 23.5863 121.677 24.0058 121.255 24.5516C120.834 25.0964 120.23 25.7955 119.724 26.4107C119.52 26.6282 119.327 26.8571 119.147 27.0953C118.948 27.4037 118.727 27.6979 118.487 27.9757C118.234 28.2553 118.024 28.5774 117.784 28.8716C117.546 29.1647 116.997 29.7385 116.674 30.2698C116.35 30.8001 115.985 31.1367 115.648 31.5831C115.31 32.0305 114.791 32.6457 114.383 33.1781C113.976 33.7084 113.301 34.4779 112.767 35.1211C112.729 35.1783 112.696 35.239 112.669 35.3023H136.126C135.839 35.0118 135.572 34.704 135.324 34.3805C135.183 34.1703 134.986 34.016 134.86 33.8067C134.551 33.3169 134.143 32.9119 133.807 32.4085C133.469 31.9052 133.033 31.5416 132.696 31.0103C132.359 30.479 131.937 30.0036 131.53 29.5427C131.346 29.3537 131.181 29.1477 131.037 28.9275C130.728 28.4376 130.321 28.0326 129.969 27.5293C129.618 27.0259 129.21 26.6489 128.873 26.1311C128.536 25.6132 128.058 25.0829 127.622 24.5796C127.425 24.3815 127.246 24.1662 127.088 23.9364C126.779 23.4465 126.372 23.0415 126.034 22.5382C125.697 22.0348 125.289 21.6433 124.923 21.14C124.699 21.14 124.53 20.8883 124.361 20.6366Z" fill="black"/>
<path d="M104.896 25.4891C103.725 24.4848 102.414 23.6555 101.002 23.0272C100.076 22.5943 99.0773 22.3281 98.1913 21.9511C97.6436 21.9511 97.1376 21.6715 96.59 21.5876L94.847 21.2665C94.5718 21.2603 94.2982 21.2224 94.0318 21.1536C93.7371 21.0149 93.456 21.1536 93.1884 21.0563C92.6427 20.9912 92.094 20.9539 91.5444 20.9444C90.9627 20.8632 90.3751 20.8306 89.788 20.8471C89.0144 20.8471 88.2553 21.0283 87.4828 20.9579C87.16 21.1122 86.8081 20.9579 86.4989 21.0842C86.1896 21.2106 85.8523 21.0842 85.5577 21.1961C85.3132 21.2524 85.0631 21.2805 84.8122 21.28L83.5752 19.3639C83.7637 19.2707 83.9699 19.2189 84.1791 19.2106C84.4019 19.193 84.6227 19.1599 84.8403 19.1133C85.0652 19.1133 85.3192 19.1827 85.515 19.0014C85.7128 18.8191 85.5858 19.0014 85.6139 19.0014C87.0163 18.8875 88.424 18.8595 89.8306 18.9175L91.2352 19.0004C91.4247 19.0252 91.6131 19.0625 91.7974 19.1133C91.9942 19.1133 92.2045 19.1133 92.4159 19.1961C92.6262 19.2811 92.823 19.1961 93.0062 19.1961C93.4258 19.337 93.86 19.4354 94.2994 19.4903C94.7086 19.6249 95.1334 19.7047 95.5644 19.7285C96.0506 19.9201 96.5483 20.0837 97.0533 20.2174L98.4589 20.7911C99.4594 21.2365 100.435 21.7367 101.382 22.2867C102.636 23.0647 103.78 24.0051 104.784 25.0831C104.83 25.2157 104.867 25.3504 104.896 25.4881V25.4891ZM40.8922 54.2188H41.8897C41.9526 54.2091 42.0169 54.222 42.0711 54.2552C42.1253 54.2885 42.1658 54.3398 42.1854 54.4001C42.3957 55.1137 42.7059 55.7983 42.9579 56.4839C43.0985 56.8889 43.2671 57.2939 43.4358 57.6854C43.6045 58.0779 43.8575 58.5657 43.9981 59.0836C44.1386 59.6014 44.377 59.9505 44.4895 60.4818C44.6332 60.8629 44.807 61.2327 45.0101 61.5869C45.361 60.748 45.7129 59.965 46.0075 59.1675C46.3032 58.37 46.6406 57.5455 46.9498 56.7356C47.259 55.9246 47.5953 55.1406 47.9056 54.3586H49.1696V62.7469H48.3262V55.3229C48.0316 56.022 47.7931 56.6092 47.5537 57.1965C47.3142 57.7837 47.1893 58.0634 47.0331 58.4963C46.7103 59.3632 46.3313 60.2021 46.0221 61.069C45.867 61.5165 45.6566 61.9359 45.4734 62.3699C45.4368 62.4501 45.3896 62.525 45.3328 62.5926H44.7852C44.7223 62.6011 44.6585 62.5858 44.6065 62.5497C44.5544 62.5137 44.5178 62.4595 44.5041 62.3979C44.2927 61.6708 43.9835 60.9996 43.7169 60.286C43.4493 59.5735 43.1963 59.0142 42.9298 58.37C42.6633 57.7278 42.3957 57.1406 42.1989 56.4974C42.1291 56.2882 42.0167 56.0645 41.9324 55.8553C41.8459 55.6422 41.7521 55.4322 41.6512 55.2255V62.5791H40.9058L40.8922 54.2188ZM138.15 56.2602C137.789 56.2803 137.427 56.2803 137.067 56.2602C136.782 55.8457 136.401 55.5051 135.957 55.267C135.473 54.9569 134.901 54.8098 134.326 54.8475C133.559 54.7957 132.801 55.0356 132.204 55.5186C131.769 55.8811 131.404 56.3161 131.122 56.805C131.008 57.0701 130.924 57.3467 130.869 57.6305C130.869 57.8262 130.968 58.0914 130.756 58.2871C130.939 58.5947 130.756 58.9583 130.897 59.2659C130.97 59.5227 131.059 59.7754 131.164 60.0209C131.489 60.6288 131.975 61.1364 132.57 61.4885C132.956 61.7415 133.402 61.891 133.863 61.9225C134.032 61.9225 134.214 62.0478 134.369 62.0053C134.895 61.9601 135.408 61.8233 135.886 61.6014C136.362 61.3435 136.771 60.98 137.081 60.5377C137.25 60.286 137.348 60.0199 137.503 59.7827C137.551 59.6327 137.551 59.4717 137.503 59.3218H133.286V58.5667H138.613C138.543 59.4315 138.264 60.2664 137.798 60.9996C137.45 61.4597 137.022 61.8528 136.533 62.1596C136.101 62.4258 135.625 62.6151 135.128 62.7189C134.801 62.7945 134.465 62.8225 134.13 62.8028C133.254 62.8205 132.394 62.5664 131.67 62.0758C130.845 61.4955 130.28 60.6178 130.096 59.6294C129.886 59.3498 130.096 58.9717 129.886 58.6786V58.3575V58.2032C129.886 58.1752 129.97 57.6719 130.04 57.4057C130.111 57.1406 130.265 56.833 130.334 56.5399C130.392 56.3265 130.497 56.1307 130.644 55.9661C130.804 55.7127 131.003 55.4862 131.234 55.2949C131.595 54.9469 132.014 54.6631 132.471 54.456C132.836 54.3586 133.174 54.2178 133.554 54.1484C133.844 54.0862 134.141 54.0573 134.439 54.0655C135.122 54.0927 135.79 54.274 136.392 54.5958C136.947 54.9687 137.424 55.443 137.798 55.994C137.91 56.0893 138.027 56.1784 138.15 56.2602ZM36.6338 74.6586C35.7249 74.6757 34.839 74.3736 34.1319 73.8052C33.3633 73.2445 32.8084 72.4413 32.5576 71.5266C32.492 71.3133 32.4535 71.0927 32.4452 70.87C32.4579 70.7115 32.4292 70.5523 32.3619 70.4081C32.315 70.3148 32.2905 70.212 32.2905 70.1077C32.2905 70.0034 32.315 69.9006 32.3619 69.8074C32.4868 69.6106 32.3619 69.3454 32.4868 69.1497C32.5347 68.7447 32.6898 68.3584 32.9366 68.0311C33.4074 67.2618 34.0974 66.6489 34.919 66.2704C35.2965 66.0701 35.714 65.9555 36.1413 65.9348C36.31 65.9348 36.4933 65.823 36.6473 65.8509C37.0961 65.8882 37.5428 65.9545 37.9832 66.0467C38.408 66.1585 38.8078 66.347 39.1628 66.606C39.8098 67.0705 40.3275 67.691 40.6673 68.4091C40.8589 68.7582 40.9693 69.1445 40.9901 69.5412C41.0109 69.6748 41.0442 69.8053 41.089 69.9327C41.1025 70.058 41.1025 70.1854 41.089 70.3107C41.0431 71.4683 40.5787 72.5705 39.7813 73.4148C39.2709 73.9068 38.6566 74.2794 37.9832 74.5054C37.5386 74.5986 37.0878 74.6504 36.6338 74.6586ZM36.8025 66.6754C36.6574 66.6613 36.5113 66.6613 36.3662 66.6754C36.0091 66.7075 35.6582 66.7924 35.3261 66.927C34.7326 67.2481 34.2443 67.7349 33.9205 68.3253C33.6133 68.733 33.4239 69.2165 33.3728 69.7235V69.9617C33.3728 70.0311 33.2885 70.3242 33.3728 70.4226C33.4572 70.5199 33.3728 70.7302 33.4572 70.8835C33.4498 70.9904 33.4498 71.0976 33.4572 71.2045C33.7383 72.1211 34.3422 72.9052 35.1574 73.4148C35.4854 73.6354 35.8727 73.7524 36.2684 73.7503C36.7452 73.9461 37.2804 73.9461 37.7572 73.7503C38.2849 73.6053 38.7692 73.3347 39.1683 72.9619C39.5674 72.5891 39.8692 72.1253 40.0478 71.6105C40.2247 71.209 40.3149 70.7751 40.3126 70.3367C40.3103 69.8984 40.2154 69.4654 40.0343 69.0658C39.8309 68.4332 39.4449 67.8742 38.9244 67.4584C38.337 66.9529 37.5786 66.6882 36.8025 66.7178V66.6764V66.6754ZM75.9299 74.6586C75.0222 74.7221 74.1239 74.4424 73.4144 73.8756C72.9951 73.5898 72.6373 73.2237 72.362 72.7987C72.0867 72.3736 71.8994 71.8982 71.811 71.4003C71.7475 71.2941 71.7061 71.1763 71.6893 71.0539C71.6725 70.9315 71.6806 70.807 71.7131 70.6877C71.7131 70.464 71.4601 70.3107 71.7131 70.0456C71.9661 69.7794 71.7131 69.6251 71.7131 69.4159C71.8318 68.87 72.0463 68.3491 72.3462 67.8778C72.6362 67.4269 73.008 67.0336 73.4425 66.7178C73.8445 66.3818 74.33 66.1596 74.8481 66.0746C75.0085 66.0239 75.173 65.9866 75.3395 65.9628C75.4926 65.9462 75.6436 65.9131 75.7893 65.8644C75.9715 65.8644 76.1829 65.767 76.3651 65.8644C76.4291 65.887 76.4989 65.887 76.5629 65.8644C77.3386 65.9245 78.0789 66.2165 78.6848 66.7033C79.0493 66.9964 79.3751 67.3351 79.6542 67.71C79.8978 68.0342 80.0706 68.406 80.1602 68.8006C80.3528 69.333 80.4101 69.9047 80.3289 70.464C80.299 70.9394 80.2091 71.4092 80.0613 71.8622C79.8177 72.4492 79.4652 72.9854 79.0222 73.4427C78.5467 73.945 77.945 74.3119 77.2793 74.5054C76.8438 74.6436 76.3854 74.6957 75.9299 74.6586ZM76.0704 66.7178C75.7544 66.7218 75.4393 66.7544 75.1292 66.8152C74.7198 66.928 74.334 67.1129 73.9902 67.361C73.6049 67.623 73.2864 67.9721 73.0635 68.3812C72.7543 68.8162 72.5835 69.332 72.5711 69.8623V70.3532C72.5711 70.3801 72.6544 70.6598 72.6835 70.8141C72.6887 71.0699 72.7314 71.3247 72.8095 71.5691C73.1523 72.4479 73.8145 73.1665 74.6649 73.5825C74.9606 73.7079 75.2969 73.7224 75.5915 73.8332C76.1048 73.972 76.6483 73.9368 77.1387 73.7358C77.9885 73.4457 78.6964 72.8462 79.1201 72.058C79.4929 71.3644 79.6447 70.5743 79.5553 69.7929C79.5428 69.5563 79.4859 69.3241 79.3876 69.1082C79.1536 68.4648 78.7449 67.8984 78.2069 67.4718C77.6072 66.9765 76.8499 66.7093 76.0704 66.7178ZM112.598 58.4549C112.653 59.2327 112.467 60.0085 112.064 60.6775C111.812 61.1181 111.484 61.5108 111.095 61.8375C110.787 62.1195 110.436 62.351 110.054 62.5232C109.774 62.6433 109.482 62.7324 109.183 62.7894C108.824 62.8722 108.454 62.9002 108.087 62.8722C107.079 62.8454 106.117 62.4467 105.388 61.7536C104.9 61.2871 104.521 60.7192 104.278 60.0903C104.194 59.9252 104.127 59.7516 104.08 59.5724C103.973 59.0724 103.936 58.5601 103.969 58.0499C104.039 57.6854 104.109 57.3084 104.207 56.9448C104.294 56.6548 104.437 56.3835 104.629 56.1473C104.901 55.7216 105.243 55.3436 105.641 55.0288C106.068 54.7035 106.542 54.4446 107.047 54.2603C107.047 54.2603 107.131 54.1774 107.174 54.1909C107.609 54.1909 108.016 54.0086 108.438 54.0645C109.43 54.1189 110.371 54.5202 111.095 55.1976C111.2 55.3156 111.312 55.4285 111.432 55.5331C111.97 56.0879 112.345 56.7795 112.514 57.5321C112.586 57.8345 112.614 58.1452 112.598 58.4549ZM104.84 58.1473C104.836 58.8979 105.02 59.6378 105.374 60.3005C105.592 60.7086 105.899 61.0618 106.274 61.3352C106.56 61.6345 106.954 61.8106 107.369 61.8241C107.553 62.0064 107.777 61.908 107.988 61.9359C108.199 61.9639 108.312 62.0758 108.424 62.0343C108.626 61.9825 108.833 61.9494 109.042 61.9359C109.329 61.8945 109.606 61.7992 109.858 61.6563C110.314 61.3787 110.722 61.0297 111.066 60.6216C111.503 59.9293 111.768 59.1437 111.839 58.3296V58.1752C111.839 58.1618 111.713 57.8821 111.713 57.7703C111.716 57.5117 111.653 57.2565 111.53 57.0287C111.266 56.4061 110.845 55.862 110.307 55.4492C109.808 55.0374 109.169 54.832 108.522 54.8755H107.819C107.703 54.8546 107.584 54.8546 107.468 54.8755C106.762 55.0978 106.141 55.5266 105.684 56.1059C105.206 56.6887 104.913 57.3989 104.84 58.1473ZM82.8725 54.2188H83.1681C83.8709 54.2188 83.9553 54.2188 84.2635 54.8195C84.5727 55.4202 84.8965 55.8687 85.2193 56.3855L86.1896 57.8811C86.6113 58.5522 87.0465 59.2793 87.4547 59.909C87.8618 60.5377 88.0586 60.8598 88.3543 61.3073V54.2468H89.2257V62.6361H88.1991L83.6034 55.2815H83.5055C83.5055 55.8687 83.6034 56.456 83.6179 57.0567C83.6315 57.6574 83.6179 58.2871 83.6179 58.9023V62.5377H82.8579L82.8725 54.2188ZM121.551 74.5468V66.0746H123.926C124.333 66.0705 124.739 66.1181 125.135 66.2145C125.432 66.2808 125.708 66.4195 125.936 66.6194C126.387 66.927 126.708 67.391 126.835 67.9203C126.954 68.2279 127.011 68.5552 127.004 68.8845C126.952 69.3071 126.828 69.7183 126.638 70.1005C126.456 70.4239 126.201 70.7013 125.894 70.9114C125.757 71.0207 125.599 71.1018 125.43 71.1498C125.261 71.1978 125.084 71.2118 124.91 71.1911C125.261 71.7918 125.613 72.3241 125.936 72.8834C126.259 73.4427 126.625 73.9316 126.948 74.5188C126.658 74.5395 126.367 74.5395 126.076 74.5188C125.902 74.3342 125.747 74.133 125.613 73.9181C125.036 72.8275 124.207 71.8343 123.701 70.7436C123.701 70.6318 123.561 70.5624 123.434 70.4081H124.361C124.67 70.4144 124.976 70.342 125.249 70.1977C125.523 70.0534 125.754 69.842 125.922 69.5836C126.034 69.4438 126.006 69.2066 126.063 69.0389C126.104 68.9563 126.126 68.8651 126.126 68.7727C126.126 68.6802 126.104 68.5891 126.063 68.5065V68.0881C125.957 67.7853 125.771 67.517 125.523 67.3125C125.275 67.1079 124.976 66.975 124.657 66.9281H122.436V73.9171C122.429 74.043 122.429 74.1692 122.436 74.2951C122.438 74.3312 122.433 74.3674 122.421 74.4014C122.408 74.4354 122.389 74.4665 122.364 74.4927C122.339 74.5189 122.309 74.5398 122.275 74.5539C122.242 74.568 122.206 74.5751 122.17 74.5747L121.551 74.5468ZM60.2873 59.3912L62.2551 62.5656H61.2712L58.7828 58.5388H59.6407C59.9496 58.5414 60.2546 58.4688 60.5289 58.3275C60.8033 58.1862 61.0388 57.9803 61.2149 57.7278C61.3742 57.3135 61.4232 56.8661 61.3555 56.428C61.2336 56.0176 61.0057 55.6462 60.6944 55.3509C60.5256 55.1999 60.3153 55.1025 60.0905 55.0712C59.7095 55.0063 59.3243 54.9689 58.9379 54.9594H57.7301V62.5377H56.9003V54.1484H59.8937C60.4973 54.1813 61.0742 54.4068 61.5388 54.7916C61.8678 55.2059 62.1114 55.6823 62.2551 56.1898C62.3207 56.4031 62.3592 56.6248 62.3675 56.8475C62.3808 57.4481 62.1788 58.0339 61.7977 58.4999C61.4165 58.966 60.8811 59.2819 60.2873 59.3912ZM103.069 56.3855H102.014C101.951 56.247 101.866 56.1197 101.761 56.0085C101.293 55.5237 100.707 55.167 100.06 54.9728C99.5604 54.8485 99.0398 54.8206 98.5286 54.89C98.0085 54.9289 97.5152 55.135 97.123 55.4772C96.7899 55.7724 96.4963 56.1111 96.2516 56.4839C95.9499 56.9213 95.7794 57.4349 95.7601 57.965C95.7842 58.1044 95.7592 58.2478 95.6893 58.371C95.6893 58.4549 95.7601 58.6227 95.7601 58.7335C95.7674 59.2969 95.9371 59.8459 96.2516 60.314C96.5327 60.8153 96.946 61.2316 97.4458 61.5165C97.8415 61.764 98.2892 61.9121 98.7535 61.9504C98.8597 61.9825 98.9638 62.025 99.0628 62.0758C99.0989 62.0898 99.1391 62.0898 99.1752 62.0758C99.4282 61.908 99.7229 61.9929 99.9904 61.9359C100.732 61.7557 101.393 61.3383 101.873 60.748C101.883 60.6783 101.883 60.6074 101.873 60.5377H102.885C102.501 61.3614 101.833 62.0212 101.002 62.3979C100.255 62.7526 99.422 62.8928 98.5984 62.8028C98.1443 62.738 97.7004 62.6162 97.2771 62.4403C96.9346 62.2882 96.6173 62.0853 96.3359 61.8386C95.7037 61.3366 95.2424 60.6531 95.0147 59.8811C94.9101 59.6082 94.8531 59.3196 94.846 59.0276C94.852 58.8879 94.8234 58.7489 94.7627 58.6227C94.7203 58.4341 94.7203 58.2385 94.7627 58.0499C94.7627 57.9515 94.846 57.8531 94.7627 57.7558C94.7835 57.5714 94.822 57.3891 94.8741 57.211C94.8741 57.0142 95.0011 56.8899 95.0292 56.7211C95.2271 56.1494 95.5706 55.6388 96.0267 55.24C96.4244 54.8361 96.9034 54.5213 97.4323 54.3162C97.6426 54.2188 97.8956 54.3162 98.0507 54.107C98.5152 54.0308 98.9857 53.9978 99.4563 54.0086C99.9373 54.0479 100.411 54.1556 100.862 54.3296C101.466 54.5989 102.007 54.9894 102.45 55.4772C102.632 55.7424 102.814 56.022 103.068 56.3855H103.069ZM74.1172 56.3721H73.1333C73.0567 56.2982 72.9861 56.2186 72.9219 56.1339C72.4931 55.559 71.8778 55.1492 71.18 54.9739C70.6758 54.8395 70.1483 54.8155 69.6339 54.9034C69.1612 54.9511 68.7145 55.1416 68.3543 55.4492C67.9028 55.7786 67.5249 56.1976 67.2444 56.6797C67.0268 57.0494 66.906 57.4668 66.8925 57.8956V58.8184C66.8894 59.2472 67.007 59.6677 67.2298 60.0344C67.4986 60.6572 67.9624 61.177 68.5521 61.5165C68.9405 61.765 69.384 61.9131 69.8442 61.9504C69.9994 61.9504 70.1399 62.0333 70.294 62.0333C70.4481 62.0333 70.547 62.0333 70.6876 61.9504C70.828 61.9579 70.9688 61.9579 71.1092 61.9504C71.8658 61.7467 72.533 61.299 73.0063 60.6775V60.5243H74.0474C73.9215 60.837 73.7351 61.1219 73.4987 61.3632C73.1041 61.7982 72.6262 62.1503 72.0932 62.3979C71.3454 62.7355 70.5198 62.8658 69.7037 62.7749C69.3788 62.7447 69.0583 62.6791 68.7479 62.5791C68.528 62.4964 68.3164 62.3934 68.1159 62.2715C67.6815 62.0321 67.2917 61.7203 66.9633 61.3497C66.4987 60.8479 66.1823 60.2282 66.0491 59.559C66.0491 59.3777 65.9513 59.1965 65.9377 58.9997C65.9231 58.8039 65.8388 58.6372 65.8534 58.4549C65.9138 58.109 65.9471 57.7579 65.9513 57.4067V57.3363C66.0533 56.8361 66.2532 56.3607 66.5416 55.9381C66.5947 55.8501 66.6613 55.7703 66.7384 55.6999C66.8925 55.5331 67.0757 55.3788 67.2298 55.1976C67.574 54.8004 68.0144 54.4974 68.5094 54.3172C68.702 54.2136 68.9113 54.1432 69.1279 54.107C69.5603 54.0068 70.0049 53.9691 70.4481 53.9951C70.9291 54.0448 71.4008 54.1525 71.8537 54.3162C72.468 54.573 73.0125 54.9707 73.4425 55.4762C73.7653 55.7703 74.0745 55.9661 74.1172 56.3721ZM110.307 72.3801H111.123C111.123 72.4919 111.123 72.6318 111.052 72.7011C110.585 73.4418 109.897 74.0187 109.084 74.351C108.93 74.4282 108.77 74.4937 108.606 74.5468C108.371 74.6056 108.132 74.6431 107.89 74.6586H107.075C106.117 74.6259 105.206 74.2423 104.516 73.5815C104.105 73.2266 103.775 72.7884 103.547 72.2962C103.324 71.8597 103.186 71.3854 103.139 70.898C103.139 70.7302 103.041 70.5624 103.041 70.3946C103.027 70.1169 103.056 69.8387 103.124 69.5691C103.173 69.2854 103.244 69.0047 103.336 68.7302C103.435 68.4796 103.561 68.2414 103.673 67.9897C103.984 67.5132 104.369 67.0886 104.812 66.7313C105.042 66.5024 105.321 66.3253 105.627 66.2134C106.003 66.0415 106.408 65.9379 106.822 65.9069C106.99 65.9069 107.159 65.8085 107.314 65.823C108.327 65.8426 109.309 66.1751 110.124 66.7738C110.582 67.1932 110.993 67.6624 111.348 68.172H110.307L109.605 67.6686C109.235 67.2585 108.742 66.9787 108.199 66.8711C107.518 66.707 106.803 66.7511 106.147 66.9975C105.89 67.0876 105.651 67.2253 105.444 67.4024C105.027 67.7142 104.674 68.1036 104.404 68.549C104.203 68.9011 104.079 69.2926 104.04 69.6955C104.047 69.8372 104.013 69.978 103.941 70.1005V70.5624C103.941 70.7157 104.024 70.7302 103.941 70.8006C103.944 71.3029 104.106 71.7918 104.404 72.1988C104.699 72.8099 105.195 73.3029 105.81 73.596C106.107 73.7717 106.439 73.8836 106.782 73.9246C107.126 73.9656 107.474 73.9348 107.806 73.8342C108.541 73.7728 109.222 73.426 109.703 72.8689L110.307 72.3801ZM93.6663 74.5333H92.9354V70.6598H88.8748V73.9171C88.8811 74.0434 88.8811 74.1698 88.8748 74.2951C88.8751 74.3307 88.8677 74.3658 88.8533 74.3983C88.8388 74.4309 88.8176 74.46 88.7911 74.4837C88.7645 74.5075 88.7332 74.5254 88.6992 74.5363C88.6652 74.5472 88.6292 74.5507 88.5937 74.5468H88.0315V66.0881H88.8603V69.8633H92.9073V66.0746H93.6674V74.5333H93.6663ZM58.966 66.0746H59.978L63.2806 74.4629H62.4092C61.974 73.624 61.7772 72.6452 61.3128 71.7783H57.6031C57.195 72.6452 56.9565 73.6105 56.5067 74.4629H55.7196C55.9466 73.7358 56.2131 73.0212 56.5213 72.3241C56.7598 71.6105 57.069 70.9259 57.3355 70.2268C57.6031 69.5277 57.8561 68.8286 58.1372 68.1575C58.4183 67.4863 58.6849 66.8297 58.966 66.0746ZM61.0317 71.0513C60.6381 69.7794 60.0478 68.6049 59.6261 67.361C59.5841 67.2471 59.5274 67.1392 59.4574 67.0399H59.3315C58.8536 68.3118 58.4048 69.5836 57.9259 70.841V71.0098L61.0317 71.0513ZM114.369 71.8622C113.905 72.7156 113.68 73.6799 113.273 74.5602H112.499C112.478 74.4682 112.478 74.3727 112.499 74.2806C112.964 73.1351 113.329 71.9326 113.905 70.8275C114.048 70.2207 114.256 69.6306 114.523 69.0668L115.184 67.389C115.376 66.9333 115.535 66.4672 115.662 65.9907H116.716L119.977 74.379C119.701 74.3997 119.423 74.3997 119.147 74.379C118.993 74.03 118.838 73.6944 118.712 73.3443C118.585 72.9953 118.304 72.3521 118.163 71.8343C118.163 71.6944 117.981 71.6385 117.812 71.653H114.369V71.8622ZM116.224 66.9695H116.126C116.14 67.0667 116.14 67.1654 116.126 67.2626C115.896 67.7618 115.699 68.2755 115.535 68.8006C115.297 69.3454 115.114 69.9047 114.917 70.4505C114.917 70.6318 114.678 70.8275 114.763 71.0658H117.84L116.224 66.9695ZM33.2885 62.5791H32.4306C32.8949 61.1809 33.4988 59.7827 34.0194 58.3845C34.54 56.9862 35.1022 55.588 35.6645 54.1898H36.7036C37.7572 56.9862 38.8536 59.6708 39.8792 62.4258V62.5377H39.0504C38.6995 61.6842 38.4319 60.8039 38.0529 59.965H34.3005C33.9351 60.8174 33.6394 61.7122 33.2885 62.5791ZM36.0997 55.0712C35.8467 55.7703 35.6072 56.4694 35.3542 57.1271C35.0679 57.8314 34.819 58.5491 34.6098 59.2793H37.7291C37.3501 57.9795 36.7317 56.805 36.3235 55.5331C36.2764 55.3768 36.2107 55.2266 36.1278 55.0857L36.0997 55.0712ZM75.3677 62.5791H74.5243C74.7492 61.8562 75.0168 61.1457 75.326 60.4538C75.5655 59.7547 75.832 59.0556 76.1131 58.3845C76.3943 57.7144 76.6889 56.9863 76.9565 56.2882C77.223 55.5891 77.4615 54.89 77.7572 54.2323H78.7692L82.0156 62.6216H81.1306L80.4559 60.9023C80.3716 60.6775 80.3153 60.4404 80.231 60.2301C80.1467 60.0209 80.0623 60.0344 79.8937 60.0344H76.3516L75.3677 62.5791ZM78.1788 55.0153L76.6046 59.2099H78.2069C78.7307 59.2379 79.2565 59.2379 79.7812 59.2099C79.3088 57.8177 78.7882 56.4422 78.2205 55.0857L78.1788 55.0153ZM139.456 72.0445H140.116C140.152 72.0394 140.189 72.0428 140.223 72.0545C140.257 72.0662 140.288 72.0859 140.313 72.1118C140.338 72.138 140.355 72.1696 140.365 72.204C140.375 72.2384 140.376 72.2746 140.369 72.3096C140.391 72.6318 140.504 72.9414 140.693 73.2045C140.791 73.3773 140.935 73.5205 141.108 73.6189C141.281 73.7174 141.478 73.7674 141.677 73.7638C142.058 73.8384 142.455 73.769 142.787 73.568C142.962 73.4553 143.109 73.3053 143.219 73.1289C143.328 72.9524 143.397 72.754 143.42 72.5479C143.42 72.3511 143.658 72.1419 143.42 71.9326C143.42 71.2895 143.012 70.9953 142.52 70.7302C142.255 70.582 141.977 70.4555 141.691 70.3521C141.37 70.2506 141.059 70.1195 140.763 69.9606C140.519 69.8334 140.307 69.6551 140.139 69.438C139.972 69.2209 139.854 68.9702 139.794 68.7033C139.675 68.1481 139.739 67.5696 139.976 67.0534C140.114 66.7282 140.356 66.4579 140.665 66.2839C140.982 66.0311 141.385 65.911 141.79 65.9483H142.337C142.529 65.9383 142.72 65.9708 142.898 66.0433C143.075 66.1158 143.235 66.2267 143.364 66.3678C143.427 66.4568 143.503 66.5366 143.589 66.606C143.814 66.7313 143.842 66.9685 143.94 67.1652C144.044 67.3475 144.093 67.5568 144.08 67.766C144.07 67.8778 144.07 67.9897 144.08 68.1015H143.279C143.245 67.8055 143.149 67.5199 142.998 67.2626C142.861 67.051 142.659 66.8893 142.422 66.8017C142.211 66.7209 141.984 66.6916 141.76 66.7163C141.536 66.7411 141.321 66.8191 141.134 66.9438C140.946 67.0685 140.792 67.2363 140.683 67.4329C140.575 67.6296 140.515 67.8493 140.51 68.0736C140.485 68.3383 140.548 68.6039 140.69 68.8289C140.833 69.054 141.046 69.2258 141.297 69.3175C141.594 69.4459 141.9 69.5536 142.211 69.6396C142.713 69.7856 143.188 70.0124 143.617 70.3107C143.834 70.4837 143.996 70.7167 144.08 70.9819C144.184 71.1994 144.236 71.4386 144.235 71.681C144.247 72.0849 144.208 72.4888 144.123 72.8824C143.987 73.4315 143.676 73.9221 143.237 74.2806C142.956 74.4817 142.635 74.6207 142.295 74.6884C141.956 74.7561 141.606 74.7509 141.269 74.6731C141.003 74.64 140.749 74.5488 140.523 74.406C140.297 74.2633 140.105 74.0726 139.962 73.8477C139.708 73.4987 139.553 73.0885 139.512 72.6597C139.517 72.4526 139.498 72.2465 139.456 72.0445ZM96.4359 66.0746H100.778V66.927H97.1938V69.8633H100.779V70.6318H97.5166C97.2771 70.6318 97.1938 70.7157 97.1793 70.9529V73.6664H100.763V74.5333H96.4348V66.0746H96.4359ZM137.306 69.8488V70.6318H134.031C133.792 70.6318 133.708 70.7157 133.708 70.9529V73.625H137.264V74.4629H132.921V66.0736H137.278V66.927H133.693V69.8353L137.306 69.8488ZM140.819 54.9594V58.0075H144.291V58.776H140.834V61.7961H144.291V62.5377H139.948V54.1484H144.305V54.862L140.819 54.9594ZM128.578 54.2468V54.9739H125.092V58.022H128.578V58.748H125.079V61.7826H128.578V62.5232H124.207V54.1339L128.578 54.2468ZM51.7142 58.0354H55.1855V58.776H51.7142V61.8106H55.1574C55.1782 62.0664 55.1782 62.3233 55.1574 62.5791H50.8001V54.1898H55.1293V54.9314H51.7142V58.0354ZM65.7118 74.5333H64.9392V66.144H67.5109C67.8317 66.1414 68.1495 66.2046 68.4445 66.3297C68.7396 66.4548 69.0055 66.6391 69.2258 66.8711C69.611 67.2926 69.8317 67.8395 69.8442 68.4091C69.865 68.8939 69.7578 69.3755 69.535 69.8074C69.3883 70.0967 69.1762 70.3482 68.9153 70.5423C68.6545 70.7364 68.352 70.8677 68.0315 70.9259C67.6494 71.0191 67.2569 71.0554 66.8654 71.0378H65.7118V74.5333ZM65.7118 66.9415V70.087H67.5255C67.9657 70.0192 68.3707 69.8079 68.6771 69.4863C68.8884 69.304 68.8322 69.0658 68.9301 68.8711C68.9922 68.682 69.0131 68.482 68.9913 68.2843C68.9696 68.0866 68.9058 67.8958 68.8041 67.7245C68.6842 67.4874 68.4989 67.2891 68.2699 67.1528C68.0409 67.0166 67.7777 66.9479 67.5109 66.955C66.9206 66.8991 66.3167 66.9415 65.7118 66.9415ZM47.4266 69.8488V70.6183H44.1521V74.0994C44.1521 74.5323 44.1521 74.5468 43.6888 74.5468H43.2953V66.1575H47.4131V66.983H44.1667V69.9047L47.4266 69.8488ZM86.021 66.0891V66.9281H84.4051V74.5333H83.6034V66.955H81.8885V66.0881H86.021V66.0891ZM119.906 61.8241H122.858V62.5511H119.077V54.1619H119.906V61.8241ZM114.791 61.8241H117.827V62.5511H114.045V54.1619H114.791V61.8241ZM130.194 74.5333H129.463V66.144C129.707 66.1295 129.951 66.1295 130.194 66.144V74.5333ZM64.5738 62.5791H63.9272V54.1898H64.6435L64.5738 62.5791Z" fill="black"/>
</svg>
