<svg width="19" height="24" viewBox="0 0 19 24" fill="none" xmlns="http://www.w3.org/2000/svg">
<g clip-path="url(#clip0_1_1201)">
<path d="M2.7065 11.2653L7.39317 13.5432C8.29567 13.9835 8.15528 15.3014 7.18206 15.5456L2.12384 16.802C1.97486 16.8388 1.81963 16.8436 1.66863 16.816C1.51762 16.7884 1.37438 16.729 1.24858 16.642C1.12278 16.5549 1.01737 16.4421 0.939459 16.3113C0.861551 16.1805 0.812971 16.0347 0.797004 15.8837C0.641349 14.536 0.78545 13.1709 1.21923 11.884C1.42717 11.2694 2.12806 10.9835 2.70756 11.2653H2.7065ZM4.7775 22.4795C5.897 23.244 7.17192 23.7576 8.51311 23.9842C8.66449 24.0093 8.81955 24.0021 8.96785 23.963C9.11616 23.9239 9.25427 23.8538 9.37289 23.7575C9.4915 23.6612 9.58787 23.5409 9.65551 23.4047C9.72315 23.2685 9.76048 23.1195 9.765 22.9679L9.94761 17.7724C9.98139 16.7748 8.7485 16.2771 8.07506 17.018L4.58434 20.882C4.48211 20.9956 4.40545 21.1294 4.35941 21.2745C4.31338 21.4196 4.29901 21.5727 4.31727 21.7237C4.33553 21.8747 4.38599 22.0202 4.46533 22.1505C4.54466 22.2807 4.65107 22.3929 4.7775 22.4795ZM11.6133 17.3268L14.3788 21.7345C14.4596 21.8638 14.5676 21.9744 14.6953 22.0589C14.8231 22.1433 14.9678 22.1997 15.1195 22.2241C15.2712 22.2486 15.4265 22.2405 15.5748 22.2005C15.7231 22.1605 15.8609 22.0895 15.9791 21.9922C17.0289 21.1268 17.8751 20.0453 18.4586 18.8232C18.524 18.6855 18.5593 18.5357 18.5621 18.3836C18.5649 18.2315 18.5351 18.0805 18.4747 17.9406C18.4143 17.8006 18.3246 17.6749 18.2116 17.5717C18.0986 17.4684 17.9648 17.39 17.8189 17.3414L12.8599 15.7376C11.9046 15.4329 11.0813 16.4785 11.6133 17.3268ZM18.5905 11.1286C18.0494 9.88753 17.2398 8.77876 16.2187 7.88022C16.1043 7.78005 15.9695 7.70528 15.8234 7.66095C15.6773 7.61662 15.5233 7.60377 15.3718 7.62325C15.2202 7.64273 15.0747 7.69409 14.9449 7.77388C14.8151 7.85367 14.7042 7.96003 14.6195 8.08579L11.7019 12.3954C11.1425 13.2249 11.9236 14.2987 12.8873 14.0221L17.9033 12.5926C18.5293 12.4089 18.8491 11.7244 18.5894 11.1286H18.5905ZM3.61006 1.41379C3.47629 1.47849 3.35739 1.56968 3.26074 1.68169C3.16408 1.7937 3.09174 1.92414 3.04819 2.06493C3.00465 2.20572 2.99082 2.35385 3.00758 2.50014C3.02434 2.64643 3.07132 2.78776 3.14561 2.91535L8.04339 11.3727C8.59228 12.3192 10.0468 11.93 10.0468 10.8385V1.07153C10.0484 0.924755 10.0192 0.779256 9.96081 0.644281C9.90247 0.509306 9.81635 0.387807 9.70794 0.287509C9.59954 0.187211 9.4712 0.110307 9.33111 0.0616867C9.19101 0.0130665 9.04221 -0.00620641 8.89417 0.00509311C7.80695 0.0885714 5.82145 0.365093 3.61006 1.41588V1.41379Z" fill="black"/>
</g>
<defs>
<clipPath id="clip0_1_1201">
<rect width="19" height="24" fill="white"/>
</clipPath>
</defs>
</svg>
