<svg width="28" height="24" viewBox="0 0 28 24" fill="none" xmlns="http://www.w3.org/2000/svg">
<g clip-path="url(#clip0_1_1189)">
<path d="M28 2.69334C26.9519 3.15831 25.84 3.46348 24.7013 3.59867C25.9013 2.88108 26.799 1.75116 27.2267 0.420005C26.099 1.08932 24.8652 1.561 23.5787 1.81467C23.0414 1.24097 22.3919 0.783841 21.6705 0.471672C20.9492 0.159503 20.1713 -0.00104186 19.3853 5.08767e-06C15.676 5.08767e-06 12.9507 3.46001 13.7893 7.05334C11.5051 6.93884 9.27052 6.34512 7.2307 5.31074C5.19088 4.27636 3.39147 2.82446 1.94933 1.04934C1.21473 2.31423 0.989612 3.81147 1.31979 5.23645C1.64996 6.66143 2.51062 7.90709 3.72667 8.72001C2.81499 8.69074 1.92353 8.44388 1.12667 8.00001C1.06133 10.664 2.96933 13.1547 5.73333 13.7093C4.88714 13.9389 3.99968 13.9722 3.13867 13.8067C3.50551 14.9482 4.22008 15.9465 5.18236 16.6618C6.14465 17.3771 7.30651 17.7737 8.50533 17.796C6.09705 19.6838 3.03809 20.5388 0 20.1733C2.62646 21.8612 5.68328 22.7573 8.80533 22.7547C19.472 22.7547 25.4987 13.7467 25.1333 5.668C26.2578 4.85442 27.2285 3.84715 28 2.69334Z" fill="black"/>
</g>
<defs>
<clipPath id="clip0_1_1189">
<rect width="28" height="24" fill="white"/>
</clipPath>
</defs>
</svg>
